<?xml version="1.0" encoding="utf-8"?>
<!-- Generator: Adobe Illustrator 25.2.1, SVG Export Plug-In . SVG Version: 6.00 Build 0)  -->
<svg version="1.1" id="Layer_1" xmlns="http://www.w3.org/2000/svg" xmlns:xlink="http://www.w3.org/1999/xlink" x="0px" y="0px"
	 viewBox="0 0 128 160" style="enable-background:new 0 0 128 160;" xml:space="preserve">
<ellipse transform="matrix(0.6671 -0.745 0.745 0.6671 -50.3629 63.5208)" style="fill:#ED4898;" cx="45.9" cy="88.1" rx="3.2" ry="1.7"/>
<circle style="fill:#ED4898;" cx="51" cy="58.4" r="1.7"/>
<circle style="fill:#ED4898;" cx="44.5" cy="66.2" r="1.7"/>
<ellipse transform="matrix(0.9546 -0.298 0.298 0.9546 -19.2714 30.3203)" style="fill:#ED4898;" cx="89.8" cy="78.4" rx="1.7" ry="3.2"/>
<ellipse transform="matrix(0.9546 -0.298 0.298 0.9546 -22.446 31.1595)" style="fill:#ED4898;" cx="90.9" cy="89.2" rx="1.7" ry="3.2"/>
<ellipse transform="matrix(0.9547 -0.2975 0.2975 0.9547 -25.4516 31.9706)" style="fill:#ED4898;" cx="92.3" cy="99.6" rx="1.7" ry="3.2"/>
<path style="fill:#ED4898;" d="M58.4,23.4c-1-0.5-2.2,0-2.7,1c0,0,0,0,0,0l-8.4,18.1c-0.5,1,0,2.2,1,2.7s2.2,0,2.7-1l8.5-18.1
	C59.9,25.1,59.5,23.9,58.4,23.4C58.4,23.4,58.4,23.4,58.4,23.4z"/>
<path style="fill:#ED4898;" d="M69.9,17.7c-1-0.5-2.2,0-2.7,1c0,0,0,0,0,0l-8.9,19c-0.5,1,0,2.2,1,2.7c1,0.5,2.2,0,2.7-1l8.9-19
	C71.4,19.4,71,18.2,69.9,17.7C69.9,17.7,69.9,17.7,69.9,17.7z"/>
<path style="fill:#ED4898;" d="M70.3,31.1l-8.4,18.1c-0.5,1,0,2.2,1,2.7s2.2,0,2.7-1l0,0l8.4-18.1c0.4-1-0.1-2.2-1.1-2.6
	C71.9,29.8,70.8,30.2,70.3,31.1L70.3,31.1z"/>
<path style="fill:#ED4898;" d="M92.4,38.4c-1-0.5-2.2,0-2.7,1c0,0,0,0,0,0l-8.4,18.1c-0.5,1,0,2.2,1,2.7c1,0.5,2.2,0,2.7-1L93.4,41
	C93.9,40,93.5,38.9,92.4,38.4C92.4,38.4,92.4,38.4,92.4,38.4z"/>
<path style="fill:#ED4898;" d="M93.4,55.3c1,0.5,2.2,0,2.7-1c0,0,0,0,0,0l8.9-19c0.4-1-0.1-2.2-1.1-2.6c-1-0.4-2,0-2.5,0.9l-8.9,19
	C91.9,53.6,92.3,54.8,93.4,55.3C93.3,55.3,93.4,55.3,93.4,55.3z"/>
<path style="fill:#ED4898;" d="M107,45.1c-1-0.5-2.2,0-2.7,1c0,0,0,0,0,0l-8.4,18.1c-0.5,1,0,2.2,1,2.7s2.2,0,2.7-1l8.4-18.1
	C108.4,46.8,108,45.6,107,45.1C107,45.1,107,45.1,107,45.1z"/>
<path style="fill:#ED4898;" d="M2.1,129.5h124c1.1,0,2-0.9,2-2c0-0.2,0-0.4-0.1-0.6l-14.1-44.3c-0.3-0.8-1-1.4-1.9-1.4h-3.6l1.3,1.5
	c1,1.2,1.4,2.7,1.4,4.2l12.3,38.6H4.8l12.8-40.3h1.8l-2.2-4h-1.1c-0.9,0-1.6,0.6-1.9,1.4L0.2,126.9c-0.3,1.1,0.3,2.2,1.3,2.5
	C1.7,129.5,1.9,129.5,2.1,129.5z"/>
<path style="fill:#ED4898;" d="M27.7,49.5c-0.6,0.1-1.2,0.4-1.5,1l0,0c0,0,0,0.1-0.1,0.2c0,0.1-0.1,0.1-0.1,0.2l-7.2,23.6
	c-0.2,0.5-0.1,1.1,0.1,1.5l12.3,22.5c0,0.1,0.1,0.1,0.1,0.1c0,0.1,0.1,0.1,0.1,0.2l0,0.1l0.1,0.1c0.1,0.1,0.2,0.1,0.2,0.2l0.2,0.1
	l0.3,0.1l0.2,0.1c0.1,0,0.3,0.1,0.4,0.1h0.3l17.6-1.7c-1.9-0.2-3.6-1.3-4.6-3c-0.1-0.2-0.2-0.3-0.2-0.5l-10.3,1l5.5-20.2l13.3-1l0,0
	l2.1-3.7l0.3-0.5l0,0l-16.1,1.2l-9.5-17.6l23-0.6L61,63.4c1-0.9,2.3-1.4,3.7-1.4h0.2L57,49.8c-0.4-0.6-1-0.9-1.7-0.9l-27,0.7
	C28.1,49.5,27.9,49.5,27.7,49.5z M30.6,72.5c0.9,0.7,1.1,2,0.6,3c-0.5,1.1-1.5,1.6-2.4,1.1c-0.9-0.7-1.1-2-0.6-3
	C28.7,72.4,29.8,71.9,30.6,72.5L30.6,72.5z"/>
<path style="fill:#ED4898;" d="M67.8,112.1l25.7,1h0.1h0.3H94l0.2-0.1l0.3-0.1l0.2-0.1c0.1-0.1,0.2-0.1,0.3-0.2l0.1-0.1
	c0.1-0.1,0.2-0.3,0.3-0.4l0,0l0,0l11.5-24.5c0.3-0.7,0.2-1.5-0.3-2.1L90.4,66l-0.1-0.1c-0.1-0.1-0.1-0.1-0.2-0.2L90,65.5l-0.2-0.1
	c-0.1,0-0.2-0.1-0.3-0.1h-0.1c-0.1,0-0.3,0-0.4,0h-0.3l-23.9,0.8c-0.7,0-1.3,0.4-1.7,1L49.9,90.5c-0.1,0.1-0.2,0.3-0.3,0.5
	c-0.3,0.6-0.2,1.3,0.1,1.8l0,0c0,0,0.1,0.1,0.1,0.1c0,0.1,0.1,0.2,0.2,0.2l16.5,18.2C66.8,111.8,67.3,112.1,67.8,112.1z M89.3,70.9
	l13.4,16L93,107.7L78.5,92.5L89.3,70.9z M73.3,103.9c-1.1,0.4-2.3,0-2.9-1c-0.7-1-0.6-2.1,0.3-2.6c1.1-0.4,2.3,0,2.9,1
	C74.4,102.3,74.3,103.4,73.3,103.9L73.3,103.9z M71.8,83.9c0.9-0.3,1.9,0.2,2.1,1.1c0.3,0.9-0.2,1.9-1.1,2.1
	c-0.9,0.3-1.8-0.2-2.1-1.1C70.3,85.1,70.9,84.2,71.8,83.9C71.8,83.9,71.8,83.9,71.8,83.9L71.8,83.9z M68.6,74
	c0.9-0.3,1.9,0.2,2.1,1.1c0.3,0.9-0.2,1.9-1.1,2.1c-0.9,0.3-1.8-0.2-2.1-1.1C67.2,75.2,67.7,74.3,68.6,74C68.6,74,68.6,74,68.6,74
	L68.6,74z"/>
</svg>
