<?xml version="1.0" encoding="utf-8"?>
<!-- Generator: Adobe Illustrator 25.2.1, SVG Export Plug-In . SVG Version: 6.00 Build 0)  -->
<svg version="1.1" id="Layer_1" xmlns="http://www.w3.org/2000/svg" xmlns:xlink="http://www.w3.org/1999/xlink" x="0px" y="0px"
	 viewBox="0 0 128 160" style="enable-background:new 0 0 128 160;" xml:space="preserve">
<path style="fill:#FFFFFF;stroke:#000000;stroke-miterlimit:10;" d="M34,62c0,0-30.8,3-29.8,28.9S39,114.6,39,114.6s1.8-0.3,5.4,2.9
	c3.6,3.2,3,2.2,3,2.2s-1.2-1.9,0.8-5.6c2-3.7,5.8-2.7,10.4-4.6s20.2-8.2,19.2-26.9S51,59,34,62z"/>
<path style="fill:#FFFFFF;stroke:#000000;stroke-miterlimit:10;" d="M31.4,55.8C28.7,62,28.7,62,28.7,62s-1.5-0.5,0-6.5
	S34.1,49.5,31.4,55.8z"/>
<path style="fill:#FFFFFF;stroke:#000000;stroke-miterlimit:10;" d="M22.2,56.5c3.5,6,3.5,6,3.5,6s-1.5,0.5-5.6-4.6
	S18.8,50.5,22.2,56.5z"/>
<path style="fill:#FFFFFF;stroke:#000000;stroke-miterlimit:10;" d="M59.8,85.1c0,1.2-0.4,2.2-1.3,3.1c-0.9,0.9-1.9,1.4-3.1,1.4
	c-0.7,0-1.6,0-2.9,0c-1.3,0-2.3,0-2.9,0c-0.4,0-0.9,0-1.7,0c-0.7,0-1.3,0-1.7,0c-0.2,0-0.4-0.1-0.4-0.3c0-0.7,0-1.9,0.1-3.3
	c0.1-1.5,0.1-2.6,0.1-3.3c0-0.8,0-2.3-0.1-4.4c0-0.6-0.1-1.4-0.1-2.5l0-0.1c0-0.2,0.1-0.2,0.3-0.2h7.4c1.8,0,3.2,0.3,4.3,1
	c0.5,0.3,0.9,0.8,1.2,1.4c0.3,0.6,0.4,1.2,0.4,1.8c0,0.5-0.2,1-0.6,1.7c-0.4,0.6-0.6,0.9-0.6,0.8c0,0.1,0.1,0.1,0.3,0.3
	C59.3,82.8,59.8,83.8,59.8,85.1z M54,79.5c0-0.7-0.8-1.1-2.3-1.1c-0.3,0-0.5,0.1-0.6,0.2c0,0.1,0,0.3,0,0.7c0,0.4,0,0.7,0.1,0.8
	c0.1,0.2,0.3,0.2,0.7,0.2C53.3,80.4,54,80.1,54,79.5z M54.6,84.8c0-0.8-0.9-1.2-2.7-1.2c-0.4,0-0.7,0.1-0.7,0.2c0,0.1,0,0.3,0,0.8
	c0,0.5,0,0.7,0.1,0.8c0.1,0.2,0.4,0.2,0.8,0.2c0.8,0,1.3,0,1.6-0.1C54.2,85.5,54.6,85.2,54.6,84.8z"/>
<path style="fill:#FFFFFF;stroke:#000000;stroke-miterlimit:10;" d="M67,79.7c0,0,0,0.1,0,0.3c-0.3,2.6-0.4,4.2-0.4,4.9
	c0,0.5,0,1.1,0,2.1s0,1.6,0,2.1c0,0.2,0,0.4,0,0.4c0,0.1-0.1,0.2-0.3,0.2c-0.3,0-0.6,0-1.1,0c-0.5,0-0.9,0-1.1,0c-0.3,0-0.6,0-1.1,0
	c-0.5,0-0.9,0-1.1,0c-0.2,0-0.3-0.1-0.3-0.2c0,0,0-0.2,0-0.4c0-0.5,0-1.2,0-2.1c0-0.9,0-1.6,0-2.1c0-1-0.1-2.7-0.4-4.9
	c0-0.1,0-0.2,0-0.3c0-0.2,0.1-0.3,0.3-0.3c0.3,0,0.7,0,1.3,0.1c0.6,0.1,1,0.1,1.3,0.1c0.3,0,0.7,0,1.3-0.1c0.6-0.1,1-0.1,1.3-0.1
	C66.9,79.4,67,79.5,67,79.7z M66.9,75.3c0,1.4-0.9,2.1-2.8,2.1c-0.8,0-1.4-0.2-1.9-0.5c-0.6-0.4-0.8-0.9-0.8-1.6
	c0-0.7,0.3-1.2,0.9-1.6c0.5-0.4,1.2-0.6,1.9-0.6c0.7,0,1.4,0.2,1.9,0.6C66.6,74.1,66.9,74.6,66.9,75.3z"/>
<path style="fill:#FFFFFF;stroke:#000000;stroke-miterlimit:10;" d="M76.6,85.6c0,0.3,0,0.7-0.1,1.3c-0.1,0.6-0.1,1-0.1,1.3
	c0,0.3,0,0.4-0.1,0.5c-0.1,0.1-0.2,0.2-0.5,0.3c-0.8,0.4-1.9,0.6-3.2,0.6c-2.5,0-3.7-0.8-3.7-2.3c0-0.4,0-0.9,0.1-1.6
	c0-0.7,0.1-1.3,0.1-1.6c0-0.3-0.2-0.4-0.5-0.4c-0.3,0-0.5-0.1-0.5-0.3c0-0.2,0-0.4,0-0.7c0-0.3,0-0.5,0-0.7c0-0.2,0-0.4,0-0.8
	c0-0.3,0-0.6,0-0.8c0-0.1,0.1-0.3,0.4-0.4c0.3-0.1,0.4-0.2,0.4-0.4v-1.3c0-1,0-1.4,0-1.2c0-0.7,0.1-1,0.3-1c0.2,0,0.5,0.1,1.1,0.2
	c0.6,0.1,1,0.2,1.2,0.2c0.1,0,0.5,0.1,1.1,0.1c0.5,0.1,0.8,0.1,1.1,0.1c0.2,0,0.3,0.1,0.3,0.2c0,0.2,0,0.6-0.1,1.1
	c-0.1,0.5-0.1,0.9-0.1,1.1c0,0.2,0.1,0.3,0.3,0.3c0.2,0,0.6,0,1,0c0.5,0,0.8,0,1,0c0.2,0,0.3,0.1,0.3,0.2c0,0.2,0,0.5-0.1,0.9
	c-0.1,0.4-0.1,0.8-0.1,1s0,0.5,0,1c0,0.4,0,0.8,0,1c0,0.2-0.1,0.3-0.3,0.3c-0.2,0-0.5,0-0.9,0c-0.4,0-0.7,0-0.9,0
	c-0.2,0-0.3,0.1-0.3,0.3c0,0.6,0.3,1,0.9,1.2c0.3,0.1,0.9,0.2,1.7,0.2C76.5,85.5,76.6,85.5,76.6,85.6z"/>
<path style="fill:#FFFFFF;stroke:#000000;stroke-miterlimit:10;" d="M88.8,79.9c0,0.3,0,0.6-0.1,1.1c0,0.5-0.1,0.9-0.1,1.2
	c0,0.3,0,0.6,0,1.1c0,0.5,0,0.9,0,1.1c0,0.3-0.3,0.4-1,0.4c-0.2,0-0.3,0-0.6,0c-0.2,0-0.4,0-0.5,0c-0.5,0-0.8,0.2-0.8,0.6
	c0,0.4,0,1,0.1,1.8s0.1,1.4,0.1,1.8c0,0.3-0.2,0.5-0.5,0.5c-0.2,0-0.6,0-1,0c-0.5,0-0.8,0-1,0c-0.2,0-0.6,0-1.1,0
	c-0.5,0-0.9,0-1.1,0c-0.3,0-0.5-0.1-0.5-0.4v-4.8c0-1.5-0.2-2.8-0.5-3.8c0-0.1,0-0.1,0-0.2c0-0.1,0.1-0.2,0.2-0.3
	c0.2-0.1,0.6-0.1,1.1-0.2c0.7-0.1,1.1-0.1,1.2-0.1c1.5-0.3,2.2-0.4,2.3-0.4c0.1,0,0.2,0.2,0.3,0.7c0,0.4,0.1,0.7,0.2,0.7
	c-0.1,0,0.2-0.2,0.9-0.6c0.6-0.4,1.3-0.6,2-0.6C88.7,79.5,88.8,79.6,88.8,79.9z"/>
<path style="fill:#FFFFFF;stroke:#000000;stroke-miterlimit:10;" d="M101.2,84.4c0,1.6-0.5,2.9-1.6,3.9c-1.1,1-2.4,1.5-4.1,1.5
	c-1.6,0-3-0.5-4-1.5c-1.1-1-1.6-2.3-1.6-3.8c0-1.6,0.5-2.9,1.6-4c1.1-1.1,2.4-1.6,4.1-1.6c1.7,0,3,0.5,4.1,1.5
	C100.6,81.5,101.2,82.8,101.2,84.4z M97.2,84.4c0-0.5-0.2-0.8-0.5-1.2c-0.3-0.3-0.7-0.5-1.2-0.5s-0.9,0.2-1.2,0.5
	c-0.3,0.3-0.5,0.7-0.5,1.2c0,0.5,0.2,0.8,0.5,1.2c0.3,0.3,0.7,0.5,1.2,0.5c0.5,0,0.9-0.2,1.2-0.5C97,85.2,97.2,84.8,97.2,84.4z"/>
<path style="fill:#FFFFFF;stroke:#000000;stroke-miterlimit:10;" d="M113.6,84.4c0,1.6-0.5,2.9-1.6,3.9c-1.1,1-2.4,1.5-4.1,1.5
	c-1.6,0-3-0.5-4-1.5c-1.1-1-1.6-2.3-1.6-3.8c0-1.6,0.5-2.9,1.6-4c1.1-1.1,2.4-1.6,4.1-1.6c1.7,0,3,0.5,4.1,1.5
	C113.1,81.5,113.6,82.8,113.6,84.4z M109.6,84.4c0-0.5-0.2-0.8-0.5-1.2c-0.3-0.3-0.7-0.5-1.2-0.5c-0.5,0-0.9,0.2-1.2,0.5
	c-0.3,0.3-0.5,0.7-0.5,1.2c0,0.5,0.2,0.8,0.5,1.2c0.3,0.3,0.7,0.5,1.2,0.5c0.5,0,0.9-0.2,1.2-0.5C109.5,85.2,109.6,84.8,109.6,84.4z
	"/>
<path style="fill:#FFFFFF;stroke:#000000;stroke-miterlimit:10;" d="M123.2,85.6c0,0.3,0,0.7-0.1,1.3c-0.1,0.6-0.1,1-0.1,1.3
	c0,0.3,0,0.4-0.1,0.5c-0.1,0.1-0.2,0.2-0.5,0.3c-0.8,0.4-1.9,0.6-3.2,0.6c-2.5,0-3.7-0.8-3.7-2.3c0-0.4,0-0.9,0.1-1.6
	c0-0.7,0.1-1.3,0.1-1.6c0-0.3-0.2-0.4-0.5-0.4c-0.3,0-0.5-0.1-0.5-0.3c0-0.2,0-0.4,0-0.7c0-0.3,0-0.5,0-0.7c0-0.2,0-0.4,0-0.8
	c0-0.3,0-0.6,0-0.8c0-0.1,0.1-0.3,0.4-0.4c0.3-0.1,0.4-0.2,0.4-0.4v-1.3c0-1,0-1.4,0-1.2c0-0.7,0.1-1,0.3-1c0.2,0,0.5,0.1,1.1,0.2
	c0.6,0.1,1,0.2,1.2,0.2c0.1,0,0.5,0.1,1.1,0.1c0.5,0.1,0.8,0.1,1.1,0.1c0.2,0,0.3,0.1,0.3,0.2c0,0.2,0,0.6-0.1,1.1
	c-0.1,0.5-0.1,0.9-0.1,1.1c0,0.2,0.1,0.3,0.3,0.3c0.2,0,0.6,0,1,0c0.5,0,0.8,0,1,0c0.2,0,0.3,0.1,0.3,0.2c0,0.2,0,0.5-0.1,0.9
	c-0.1,0.4-0.1,0.8-0.1,1s0,0.5,0,1c0,0.4,0,0.8,0,1c0,0.2-0.1,0.3-0.3,0.3c-0.2,0-0.5,0-0.9,0s-0.7,0-0.9,0c-0.2,0-0.3,0.1-0.3,0.3
	c0,0.6,0.3,1,0.9,1.2c0.3,0.1,0.9,0.2,1.7,0.2C123.1,85.5,123.2,85.5,123.2,85.6z"/>
</svg>
