<?xml version="1.0" encoding="utf-8"?>
<!-- Generator: Adobe Illustrator 25.2.1, SVG Export Plug-In . SVG Version: 6.00 Build 0)  -->
<svg version="1.1" id="Layer_1" xmlns="http://www.w3.org/2000/svg" xmlns:xlink="http://www.w3.org/1999/xlink" x="0px" y="0px"
	 viewBox="0 0 128 160" style="enable-background:new 0 0 128 160;" xml:space="preserve">
<g>
	<path style="fill:#FFFFFF;stroke:#ED4898;stroke-miterlimit:10;" d="M115,121V48.8c0-5.5-4.3-9.8-9.8-9.8H87.7v-7.8h5.9
		c3.3,0,5.9-2.5,5.9-5.9v-7.8c0-3.3-2.5-5.9-5.9-5.9H35c-3.3,0-5.9,2.5-5.9,5.9v7.8c0,3.3,2.5,5.9,5.9,5.9h5.9v7.8H23.3
		c-5.5,0-9.8,4.3-9.8,9.8V121c-5.5,0-9.8,4.3-9.8,9.8v2h121v-2C124.7,125.3,120.4,121,115,121z M33,25.4v-7.8c0-1.2,0.8-2,2-2h58.5
		c1.2,0,2,0.8,2,2v7.8c0,1.2-0.8,2-2,2H35C33.8,27.4,33,26.6,33,25.4z M44.7,31.3h39v7.8h-39V31.3z M17.4,48.8
		c0-3.3,2.5-5.9,5.9-5.9h81.9c3.3,0,5.9,2.5,5.9,5.9V121H48.5c1.4-1.4,2.1-3.1,2.1-4.9c0-3.5-2.9-6.4-7.8-8V98
		c3.5-2,5.9-5.9,5.9-10.1c0-2.1-0.6-4.1-1.6-5.9h56.2c2.1,0,3.9-1.8,3.9-3.9V50.8c0-2.1-1.8-3.9-3.9-3.9h-78c-2.1,0-3.9,1.8-3.9,3.9
		v27.3c0,2.1,1.8,3.9,3.9,3.9h1.6c-1,1.8-1.6,3.7-1.6,5.9c0,4.3,2.3,8,5.9,10.1v10.1c-4.7,1.4-7.8,4.5-7.8,8c0,1.8,0.8,3.5,2.1,4.9
		h-8V48.8z M27.2,116.1c0-1.4,1.6-2.9,3.9-3.9v4.9h11.7v-4.9c2.3,1,3.9,2.3,3.9,3.9c0,2.3-4.1,4.9-9.8,4.9S27.2,118.5,27.2,116.1z
		 M103.3,50.8v27.3H79.9V50.8C79.9,50.8,103.3,50.8,103.3,50.8z M76,78.1H52.5V50.8H76V78.1z M48.6,78.1h-5.3c-2-1.2-4.1-2-6.4-2
		c-2.3,0-4.7,0.8-6.4,2h-5.3V50.8h23.4V78.1z M36.9,80c4.3,0,7.8,3.5,7.8,7.8c0,4.3-3.5,7.8-7.8,7.8s-7.8-3.5-7.8-7.8
		C29.1,83.5,32.6,80,36.9,80z M36.9,99.5c0.6,0,1.4,0,2-0.2v13.9H35V99.3C35.6,99.5,36.4,99.5,36.9,99.5z M8.1,128.8
		c0.8-2.3,2.9-3.9,5.5-3.9H115c2.5,0,4.7,1.6,5.5,3.9H8.1z"/>
	<rect x="36.9" y="19.5" style="fill:#FFFFFF;stroke:#ED4898;stroke-miterlimit:10;" width="3.9" height="3.9"/>
	<rect x="44.7" y="19.5" style="fill:#FFFFFF;stroke:#ED4898;stroke-miterlimit:10;" width="39" height="3.9"/>
	<rect x="87.7" y="19.5" style="fill:#FFFFFF;stroke:#ED4898;stroke-miterlimit:10;" width="3.9" height="3.9"/>
	<polygon style="fill:#FFFFFF;stroke:#ED4898;stroke-miterlimit:10;" points="33,58.6 40.5,58.6 31.5,73.2 34.6,75.2 44.7,59.2 
		44.7,54.7 29.1,54.7 29.1,60.5 33,60.5 	"/>
	<polygon style="fill:#FFFFFF;stroke:#ED4898;stroke-miterlimit:10;" points="60.4,60.5 60.4,58.6 67.8,58.6 58.8,73.2 61.9,75.2 
		72.1,59.2 72.1,54.7 56.5,54.7 56.5,60.5 	"/>
	<polygon style="fill:#FFFFFF;stroke:#ED4898;stroke-miterlimit:10;" points="87.7,60.5 87.7,58.6 95.1,58.6 86.1,73.2 89.2,75.2 
		99.4,59.2 99.4,54.7 83.8,54.7 83.8,60.5 	"/>
	<path style="fill:#FFFFFF;stroke:#ED4898;stroke-miterlimit:10;" d="M91.6,97.6h15.6V85.9H91.6V97.6z M95.5,89.8h7.8v3.9h-7.8V89.8
		z"/>
	<path style="fill:#FFFFFF;stroke:#ED4898;stroke-miterlimit:10;" d="M72.1,97.6h15.6V85.9H72.1V97.6z M76,89.8h7.8v3.9H76V89.8z"/>
	<path style="fill:#FFFFFF;stroke:#ED4898;stroke-miterlimit:10;" d="M52.5,97.6h15.6V85.9H52.5V97.6z M56.5,89.8h7.8v3.9h-7.8V89.8
		z"/>
	<path style="fill:#FFFFFF;stroke:#ED4898;stroke-miterlimit:10;" d="M99.4,101.5c-4.3,0-7.8,3.5-7.8,7.8s3.5,7.8,7.8,7.8
		c4.3,0,7.8-3.5,7.8-7.8S103.7,101.5,99.4,101.5z M99.4,113.2c-2.1,0-3.9-1.8-3.9-3.9s1.8-3.9,3.9-3.9c2.1,0,3.9,1.8,3.9,3.9
		S101.5,113.2,99.4,113.2z"/>
	<path style="fill:#FFFFFF;stroke:#ED4898;stroke-miterlimit:10;" d="M79.9,101.5c-4.3,0-7.8,3.5-7.8,7.8s3.5,7.8,7.8,7.8
		c4.3,0,7.8-3.5,7.8-7.8S84.2,101.5,79.9,101.5z M79.9,113.2c-2.1,0-3.9-1.8-3.9-3.9s1.8-3.9,3.9-3.9c2.1,0,3.9,1.8,3.9,3.9
		S82,113.2,79.9,113.2z"/>
	<path style="fill:#FFFFFF;stroke:#ED4898;stroke-miterlimit:10;" d="M60.4,101.5c-4.3,0-7.8,3.5-7.8,7.8s3.5,7.8,7.8,7.8
		s7.8-3.5,7.8-7.8S64.6,101.5,60.4,101.5z M60.4,113.2c-2.1,0-3.9-1.8-3.9-3.9s1.8-3.9,3.9-3.9c2.1,0,3.9,1.8,3.9,3.9
		S62.5,113.2,60.4,113.2z"/>
</g>
</svg>
