<?xml version="1.0" encoding="iso-8859-1"?>
<!-- Generator: Adobe Illustrator 19.0.0, SVG Export Plug-In . SVG Version: 6.00 Build 0)  -->
<svg version="1.1" id="Layer_1" xmlns="http://www.w3.org/2000/svg" xmlns:xlink="http://www.w3.org/1999/xlink" x="0px" y="0px"
	 viewBox="0 0 503.467 503.467" style="enable-background:new 0 0 503.467 503.467;" xml:space="preserve">
<g transform="translate(1 1)">
	<path style="fill:#FF7474;" d="M122.733,421.4c0-14.507-11.093-25.6-25.6-25.6s-25.6,11.093-25.6,25.6s11.093,25.6,25.6,25.6
		S122.733,435.907,122.733,421.4L122.733,421.4z M208.067,421.4c0-14.507-11.093-25.6-25.6-25.6s-25.6,11.093-25.6,25.6
		s11.093,25.6,25.6,25.6S208.067,435.907,208.067,421.4L208.067,421.4z M293.4,421.4c0-14.507-11.093-25.6-25.6-25.6
		c-14.507,0-25.6,11.093-25.6,25.6s11.093,25.6,25.6,25.6C282.307,447,293.4,435.907,293.4,421.4L293.4,421.4z M498.2,344.6v119.467
		c0,18.773-15.36,34.133-34.133,34.133H37.4c-18.773,0-34.133-15.36-34.133-34.133V344.6H498.2z M498.2,37.4v51.2H3.267V37.4
		c0-18.773,15.36-34.133,34.133-34.133h426.667C482.84,3.267,498.2,18.627,498.2,37.4z"/>
	<path style="fill:#ECF4F7;" d="M3.267,344.6H498.2v-256H3.267V344.6z M216.6,242.2c-9.387,0-17.067,7.68-17.067,17.067
		c0,9.387,7.68,17.067,17.067,17.067s17.067-7.68,17.067-17.067C233.667,249.88,225.987,242.2,216.6,242.2L216.6,242.2z
		 M284.867,242.2c-9.387,0-17.067,7.68-17.067,17.067c0,9.387,7.68,17.067,17.067,17.067s17.067-7.68,17.067-17.067
		C301.933,249.88,294.253,242.2,284.867,242.2L284.867,242.2z"/>
	<path style="fill:#FF7474;" d="M284.867,242.2c9.387,0,17.067,7.68,17.067,17.067c0,9.387-7.68,17.067-17.067,17.067
		s-17.067-7.68-17.067-17.067C267.8,249.88,275.48,242.2,284.867,242.2z M216.6,242.2c9.387,0,17.067,7.68,17.067,17.067
		c0,9.387-7.68,17.067-17.067,17.067s-17.067-7.68-17.067-17.067C199.533,249.88,207.213,242.2,216.6,242.2z"/>
	<path style="fill:#FFE079;" d="M267.8,395.8c14.507,0,25.6,11.093,25.6,25.6S282.307,447,267.8,447
		c-14.507,0-25.6-11.093-25.6-25.6S253.293,395.8,267.8,395.8"/>
	<path style="fill:#80D6FA;" d="M97.133,395.8c14.507,0,25.6,11.093,25.6,25.6S111.64,447,97.133,447s-25.6-11.093-25.6-25.6
		S82.627,395.8,97.133,395.8"/>
	<path style="fill:#50DD8E;" d="M182.467,395.8c14.507,0,25.6,11.093,25.6,25.6s-11.093,25.6-25.6,25.6s-25.6-11.093-25.6-25.6
		S167.96,395.8,182.467,395.8"/>
</g>
<path style="fill:#51565F;" d="M465.067,503.467H38.4c-21.333,0-38.4-17.067-38.4-38.4V89.6c0-2.56,1.707-4.267,4.267-4.267h460.8
	c2.56,0,4.267,1.707,4.267,4.267c0,2.56-1.707,4.267-4.267,4.267H8.533v371.2c0,16.213,13.653,29.867,29.867,29.867h426.667
	c16.213,0,29.867-13.653,29.867-29.867v-85.333c0-2.56,1.707-4.267,4.267-4.267c2.56,0,4.267,1.707,4.267,4.267v85.333
	C503.467,486.4,486.4,503.467,465.067,503.467z M430.933,452.267c-2.56,0-4.267-1.707-4.267-4.267v-51.2
	c0-2.56,1.707-4.267,4.267-4.267s4.267,1.707,4.267,4.267V448C435.2,450.56,433.493,452.267,430.933,452.267z M396.8,452.267
	c-2.56,0-4.267-1.707-4.267-4.267v-51.2c0-2.56,1.707-4.267,4.267-4.267s4.267,1.707,4.267,4.267V448
	C401.067,450.56,399.36,452.267,396.8,452.267z M362.667,452.267c-2.56,0-4.267-1.707-4.267-4.267v-51.2
	c0-2.56,1.707-4.267,4.267-4.267s4.267,1.707,4.267,4.267V448C366.933,450.56,365.227,452.267,362.667,452.267z M268.8,452.267
	c-16.213,0-29.867-13.653-29.867-29.867s13.653-29.867,29.867-29.867s29.867,13.653,29.867,29.867S285.013,452.267,268.8,452.267z
	 M268.8,401.067c-11.947,0-21.333,9.387-21.333,21.333s9.387,21.333,21.333,21.333s21.333-9.387,21.333-21.333
	S280.747,401.067,268.8,401.067z M183.467,452.267c-16.213,0-29.867-13.653-29.867-29.867s13.653-29.867,29.867-29.867
	s29.867,13.653,29.867,29.867S199.68,452.267,183.467,452.267z M183.467,401.067c-11.947,0-21.333,9.387-21.333,21.333
	s9.387,21.333,21.333,21.333S204.8,434.347,204.8,422.4S195.413,401.067,183.467,401.067z M98.133,452.267
	c-16.213,0-29.867-13.653-29.867-29.867s13.653-29.867,29.867-29.867S128,406.187,128,422.4S114.347,452.267,98.133,452.267z
	 M98.133,401.067c-11.947,0-21.333,9.387-21.333,21.333s9.387,21.333,21.333,21.333s21.333-9.387,21.333-21.333
	S110.08,401.067,98.133,401.067z M499.2,349.867H29.867c-2.56,0-4.267-1.707-4.267-4.267c0-2.56,1.707-4.267,4.267-4.267h465.067
	V38.4c0-16.213-13.653-29.867-29.867-29.867H38.4C22.187,8.533,8.533,22.187,8.533,38.4v17.067c0,2.56-1.707,4.267-4.267,4.267
	S0,58.027,0,55.467V38.4C0,17.067,17.067,0,38.4,0h426.667c21.333,0,38.4,17.067,38.4,38.4v307.2
	C503.467,348.16,501.76,349.867,499.2,349.867z M337.067,315.733c-2.56,0-4.267-1.707-4.267-4.267V123.733
	c0-2.56,1.707-4.267,4.267-4.267s4.267,1.707,4.267,4.267v187.733C341.333,314.027,339.627,315.733,337.067,315.733z M166.4,315.733
	c-2.56,0-4.267-1.707-4.267-4.267V123.733c0-2.56,1.707-4.267,4.267-4.267s4.267,1.707,4.267,4.267v187.733
	C170.667,314.027,168.96,315.733,166.4,315.733z M405.333,281.6h-17.067c-2.56,0-4.267-1.707-4.267-4.267s1.707-4.267,4.267-4.267
	h4.267c2.56-34.987,33.28-77.653,46.08-93.867H384v4.267c0,2.56-1.707,4.267-4.267,4.267c-2.56,0-4.267-1.707-4.267-4.267v-8.533
	c0-2.56,1.707-4.267,4.267-4.267H448c1.707,0,3.413,0.853,4.267,2.56c0.853,1.707,0.853,3.413-0.853,4.267
	c-0.853,0.853-46.933,55.467-50.347,95.573h4.267c2.56,0,4.267,1.707,4.267,4.267S407.893,281.6,405.333,281.6z M285.867,281.6
	c-11.947,0-21.333-9.387-21.333-21.333c0-9.387,5.973-17.067,14.507-20.48c-5.973-11.093-17.067-34.987-8.533-65.707
	c-40.107,21.333-46.933,53.76-47.787,64.853c9.387,1.707,17.067,10.24,17.067,20.48c0,11.947-9.387,21.333-21.333,21.333
	c-11.947,0-21.333-9.387-21.333-21.333c0-10.24,7.68-18.773,17.067-21.333c0.853-12.8,9.387-54.613,62.293-76.8
	c1.707-0.853,3.413,0,4.267,0.853c0.853,0.853,1.707,3.413,0.853,4.267c-13.653,34.987,2.56,64,6.827,70.827
	c11.093,0.853,18.773,10.24,18.773,21.333C307.2,272.213,297.813,281.6,285.867,281.6z M285.867,247.467
	c-6.827,0-12.8,5.973-12.8,12.8c0,6.827,5.973,12.8,12.8,12.8c6.827,0,12.8-5.973,12.8-12.8
	C298.667,253.44,292.693,247.467,285.867,247.467L285.867,247.467z M217.6,247.467c-6.827,0-12.8,5.973-12.8,12.8
	c0,6.827,5.973,12.8,12.8,12.8c6.827,0,12.8-5.973,12.8-12.8C230.4,253.44,224.427,247.467,217.6,247.467z M81.067,281.6H64
	c-2.56,0-4.267-1.707-4.267-4.267s1.707-4.267,4.267-4.267h4.267c2.56-34.987,33.28-77.653,46.08-93.867H59.733v4.267
	c0,2.56-1.707,4.267-4.267,4.267c-2.56,0-4.267-1.707-4.267-4.267v-8.533c0-2.56,1.707-4.267,4.267-4.267h68.267
	c1.707,0,3.413,0.853,4.267,2.56c0.853,1.706,0.853,3.413-0.853,4.267c-0.853,0.853-46.933,55.467-50.347,95.573h4.267
	c2.56,0,4.267,1.707,4.267,4.267S83.627,281.6,81.067,281.6z"/>
<g>
</g>
<g>
</g>
<g>
</g>
<g>
</g>
<g>
</g>
<g>
</g>
<g>
</g>
<g>
</g>
<g>
</g>
<g>
</g>
<g>
</g>
<g>
</g>
<g>
</g>
<g>
</g>
<g>
</g>
</svg>
