<?xml version="1.0" encoding="utf-8"?>
<!-- Generator: Adobe Illustrator 25.2.1, SVG Export Plug-In . SVG Version: 6.00 Build 0)  -->
<svg version="1.1" id="Layer_1" xmlns="http://www.w3.org/2000/svg" xmlns:xlink="http://www.w3.org/1999/xlink" x="0px" y="0px"
	 viewBox="0 0 128 160" style="enable-background:new 0 0 128 160;" xml:space="preserve">
<path style="fill:#ED4898;" d="M82.8,32.6c-0.5,2.8-0.9,4.7-1.9,5.9c-4-3-8.8-4.7-14.1-4.7C53.8,33.8,43,44.7,43,58
	c0,8.2,4.1,15.4,10.2,19.7c-1.2,0.7-1.9,1.3-1.9,2.3v2.4c-1.7,0.8-2.7,1.7-2.7,2.8v4.4c0,3.4,9.2,5.1,18.3,5.1
	c9,0,18.3-1.7,18.3-5.1v-4.4c0-1.1-0.9-2-2.7-2.8V80c0-0.9-0.7-1.7-2.1-2.4c6.1-4.4,10.1-11.5,10.1-19.7c0-5.6-2-10.9-5.2-15
	c1.2-0.8,2.9-1.3,5.7-1.7C84.8,40.2,83.9,39.2,82.8,32.6z M67.2,86.9c-4.2,0-7.6-0.4-9.9-0.9v-2.4c2.8,0.7,6.4,0.9,9.9,0.9
	c3.6,0,7.3-0.4,10.1-0.9v2.4C74.9,86.4,71.5,86.9,67.2,86.9z M56.5,83.4v2.4c-0.4-0.1-0.8-0.3-1.2-0.4V83
	C55.8,83.1,56.2,83.2,56.5,83.4z M77.9,85.8v-2.4c0.4-0.1,0.8-0.3,1.2-0.4v2.4C78.7,85.5,78.3,85.6,77.9,85.8z M54.7,82.8v2.4
	C54.4,85.1,54.2,85,54,85v-2.3C54.2,82.6,54.4,82.7,54.7,82.8z M79.8,85.1v-2.4c0.3-0.1,0.5-0.1,0.7-0.3v2.3
	C80.2,84.8,80,85,79.8,85.1z M53.4,82.2v2.3c-0.4-0.3-0.5-0.5-0.5-0.7v-1.9C53,82,53.2,82.2,53.4,82.2z M52.2,88.3V91
	c-0.3-0.1-0.5-0.3-0.7-0.4v-2.7C51.8,88.2,51.9,88.2,52.2,88.3z M52.8,88.6c0.4,0.1,0.8,0.3,1.2,0.4v2.8c-0.4-0.1-0.8-0.3-1.2-0.4
	V88.6z M81.5,88.6v2.7c-0.4,0.1-0.8,0.3-1.2,0.4v-2.8C80.7,88.9,81.1,88.7,81.5,88.6z M82.2,88.3c0.3-0.1,0.5-0.3,0.7-0.3v2.7
	c-0.3,0.1-0.4,0.3-0.7,0.4V88.3z M81.1,84.4v-2.3c0.1-0.1,0.3-0.1,0.4-0.3v1.9C81.5,83.9,81.4,84.2,81.1,84.4z M50.4,89.7v-2.1
	c0.1,0.1,0.3,0.1,0.4,0.3v2.5C50.6,90.1,50.4,89.8,50.4,89.7z M54.7,91.8V89c3.4,0.8,8,1.3,12.5,1.3c4.5,0,9.2-0.4,12.5-1.3v2.8
	c-2.8,0.8-7,1.3-12.5,1.3C61.6,93.2,57.5,92.6,54.7,91.8z M83.5,90.2v-2.5c0.1-0.1,0.3-0.1,0.4-0.3v2.1
	C83.9,89.8,83.7,90.1,83.5,90.2z M67,79.5c-11.8,0-21.4-9.7-21.4-21.6S55.2,36.4,67,36.4c4.4,0,8.5,1.3,11.9,3.6
	c-1.1,0.5-2.7,0.8-4.6,1.2c6.5,1.1,7.4,2,8.5,8.6c0.4-2.1,0.7-3.6,1.2-4.8c2.7,3.6,4.2,8.1,4.2,12.9C88.4,69.8,78.7,79.5,67,79.5z"
	/>
<path style="fill:#ED4898;" d="M77.6,47.4c-2,1.5-2.5,1.5-4.5,0.1c1.5,2,1.5,2.5,0.1,4.6c2-1.5,2.5-1.5,4.5-0.1
	C76.2,50.1,76.2,49.5,77.6,47.4z"/>
<path style="fill:#ED4898;" d="M99.8,47.5c-2.5,0.4-2.9,0.1-4.1-2c0.4,2.5,0.1,3-2,4.2c2.5-0.4,2.9-0.1,4.1,2
	C97.3,49.1,97.5,48.7,99.8,47.5z"/>
<path style="fill:#ED4898;" d="M78.3,31.3c0-2.5,0.3-3,2.5-3.9c-2.5,0-2.9-0.3-3.8-2.5c0,2.5-0.3,3-2.5,3.9
	C77.1,28.7,77.4,29,78.3,31.3z"/>
<ellipse style="fill:#ED4898;" cx="81.9" cy="54.4" rx="1.2" ry="1.2"/>
<ellipse style="fill:#ED4898;" cx="95.6" cy="38.5" rx="1.2" ry="1.2"/>
<ellipse style="fill:#ED4898;" cx="83.1" cy="58.5" rx="0.5" ry="0.5"/>
<ellipse style="fill:#ED4898;" cx="75.5" cy="65.8" rx="0.5" ry="0.5"/>
<ellipse style="fill:#ED4898;" cx="65.2" cy="44.4" rx="0.5" ry="0.5"/>
<ellipse style="fill:#ED4898;" cx="96.1" cy="58.5" rx="0.5" ry="0.5"/>
<path style="fill:#ED4898;" d="M57.7,102.3L57.7,102.3h19c0.8,0,1.5,0.4,1.6,0.9l4,22c0.1,0.5-0.7,0.9-1.9,0.9l0,0H53.9
	c-1.1,0-1.9-0.4-1.9-0.9l4-22C56.3,102.7,56.9,102.3,57.7,102.3 M57.7,100.4L57.7,100.4c-1.7,0-3.2,1.1-3.4,2.4l-4,22
	c-0.1,0.7,0,1.3,0.5,1.9c0.7,0.8,1.7,1.2,3.2,1.2h26.4c1.3,0,2.5-0.4,3.2-1.2c0.4-0.5,0.7-1.2,0.5-1.9l-4-22
	c-0.3-1.5-1.7-2.4-3.4-2.4H57.7L57.7,100.4L57.7,100.4z"/>
<path style="fill:#ED4898;" d="M76.4,122.9h-1.3c-0.1,0-0.3-0.1-0.3-0.3s0.1-0.3,0.3-0.3l0,0h1.3c0.1,0,0.3,0.1,0.3,0.3
	S76.6,122.9,76.4,122.9z"/>
<path style="fill:#ED4898;" d="M73.9,122.9h-1.3c-0.1,0-0.3-0.1-0.3-0.3s0.1-0.3,0.3-0.3h1.3c0.1,0,0.3,0.1,0.3,0.3
	S74.1,122.9,73.9,122.9z"/>
<path style="fill:#ED4898;" d="M71.4,122.9L71.4,122.9h-1.3c-0.1,0-0.3-0.1-0.3-0.3s0.1-0.3,0.3-0.3l0,0h1.3c0.1,0,0.3,0.1,0.3,0.3
	S71.5,122.9,71.4,122.9z"/>
<path style="fill:#ED4898;" d="M68.9,122.9h-1.3c-0.1,0-0.3-0.1-0.3-0.3s0.1-0.3,0.3-0.3h1.3c0.1,0,0.3,0.1,0.3,0.3
	S69,122.9,68.9,122.9z"/>
<path style="fill:#ED4898;" d="M66.4,122.9L66.4,122.9H65c-0.1,0-0.3-0.1-0.3-0.3s0.1-0.3,0.3-0.3l0,0h1.3c0.1,0,0.3,0.1,0.3,0.3
	S66.5,122.9,66.4,122.9z"/>
<path style="fill:#ED4898;" d="M63.8,122.9h-1.3c-0.1,0-0.3-0.1-0.3-0.3s0.1-0.3,0.3-0.3h1.3c0.1,0,0.3,0.1,0.3,0.3
	S64,122.9,63.8,122.9z"/>
<path style="fill:#ED4898;" d="M61.2,122.9L61.2,122.9h-1.3c-0.1,0-0.3-0.1-0.3-0.3s0.1-0.3,0.3-0.3l0,0h1.3c0.1,0,0.3,0.1,0.3,0.3
	C61.6,122.8,61.5,122.9,61.2,122.9z"/>
<path style="fill:#ED4898;" d="M58.7,122.9h-0.8c-0.1,0-0.4,0-0.5,0c-0.1,0-0.3-0.1-0.3-0.4c0-0.1,0.1-0.3,0.4-0.3
	c0.1,0,0.3,0,0.4,0h0.8c0.1,0,0.3,0.1,0.3,0.3C58.9,122.7,58.9,122.9,58.7,122.9z"/>
<path style="fill:#ED4898;" d="M77.6,122.7c-0.1,0-0.1,0-0.3-0.1c-0.1-0.1-0.1-0.4,0-0.4l0.1-0.1l-0.1-0.8c0-0.1,0.1-0.3,0.3-0.4
	c0.1,0,0.3,0.1,0.4,0.3l0.1,0.8c0,0.3-0.1,0.5-0.4,0.7C77.8,122.7,77.6,122.7,77.6,122.7z"/>
<path style="fill:#ED4898;" d="M56.4,122.3c-0.1,0-0.3-0.1-0.3-0.3v-0.1l0.1-1.2c0-0.1,0.1-0.3,0.4-0.3c0.1,0,0.3,0.1,0.3,0.4
	l-0.1,1.2C56.8,122.1,56.7,122.3,56.4,122.3C56.5,122.3,56.5,122.3,56.4,122.3z"/>
<path style="fill:#ED4898;" d="M77.6,120.3c-0.1,0-0.3-0.1-0.3-0.3l-0.1-1.2c0-0.1,0.1-0.3,0.3-0.4c0.1,0,0.3,0.1,0.4,0.3l0.1,1.2
	C77.9,120,77.8,120.3,77.6,120.3L77.6,120.3z"/>
<path style="fill:#ED4898;" d="M56.8,119.7L56.8,119.7c-0.3,0-0.3-0.1-0.3-0.3l0.1-1.2c0-0.1,0.1-0.3,0.4-0.3c0.1,0,0.3,0.1,0.3,0.4
	l-0.3,1.1C57.1,119.7,56.9,119.7,56.8,119.7z"/>
<path style="fill:#ED4898;" d="M77.2,117.7c-0.1,0-0.3-0.1-0.3-0.3l-0.1-1.2c0-0.1,0.1-0.3,0.3-0.4c0.1,0,0.3,0.1,0.4,0.3l0.1,1.2
	C77.6,117.6,77.5,117.7,77.2,117.7L77.2,117.7z"/>
<path style="fill:#ED4898;" d="M57.2,117.3C57.2,117.3,57.1,117.2,57.2,117.3c-0.3,0-0.4-0.1-0.3-0.4l0.1-1.2c0-0.1,0.1-0.3,0.4-0.3
	c0.1,0,0.3,0.1,0.3,0.4l-0.1,1.2C57.5,117.2,57.3,117.3,57.2,117.3z"/>
<path style="fill:#ED4898;" d="M76.8,115.2c-0.1,0-0.3-0.1-0.3-0.3l-0.1-1.2c0-0.1,0.1-0.3,0.3-0.4c0.1,0,0.3,0.1,0.4,0.3l0.1,1.2
	C77.2,115,77.1,115.2,76.8,115.2C77,115.2,77,115.2,76.8,115.2z"/>
<path style="fill:#ED4898;" d="M57.5,114.8L57.5,114.8c-0.3,0-0.4-0.1-0.3-0.4l0.1-1.2c0-0.1,0.1-0.3,0.4-0.3c0.1,0,0.3,0.1,0.3,0.4
	l-0.1,1.2C57.7,114.6,57.6,114.8,57.5,114.8z"/>
<path style="fill:#ED4898;" d="M76.6,112.6c-0.1,0-0.3-0.1-0.3-0.3l-0.1-1.2c0-0.1,0.1-0.3,0.3-0.4c0.1,0,0.3,0.1,0.4,0.3l0.1,1.2
	C76.8,112.5,76.8,112.6,76.6,112.6L76.6,112.6z"/>
<path style="fill:#ED4898;" d="M57.9,112.2L57.9,112.2c-0.3,0-0.4-0.1-0.3-0.4l0.1-1.2c0-0.1,0.1-0.3,0.4-0.3c0.1,0,0.3,0.1,0.3,0.4
	l-0.1,1.2C58.1,112.1,58,112.2,57.9,112.2z"/>
<path style="fill:#ED4898;" d="M76.2,110.1c-0.1,0-0.3-0.1-0.3-0.3l-0.1-1.2c0-0.1,0.1-0.3,0.3-0.4c0.1,0,0.3,0.1,0.4,0.3l0.1,1.2
	C76.6,109.9,76.4,110.1,76.2,110.1C76.3,110.1,76.3,110.1,76.2,110.1z"/>
<path style="fill:#ED4898;" d="M58.1,109.7L58.1,109.7c-0.3,0-0.4-0.1-0.3-0.4l0.1-1.2c0-0.1,0.1-0.3,0.4-0.3c0.1,0,0.3,0.1,0.3,0.4
	l-0.1,1.2C58.5,109.5,58.4,109.7,58.1,109.7z"/>
<path style="fill:#ED4898;" d="M75.9,107.5c-0.1,0-0.3-0.1-0.3-0.3l-0.3-1.2c0-0.1,0.1-0.3,0.3-0.4c0.1,0,0.3,0.1,0.4,0.3l0.1,1.2
	C76.2,107.4,76.1,107.5,75.9,107.5L75.9,107.5z"/>
<path style="fill:#ED4898;" d="M58.5,107.1L58.5,107.1c-0.3,0-0.4-0.1-0.3-0.4l0.1-1.2c0-0.1,0.1-0.3,0.4-0.3c0.1,0,0.3,0.1,0.3,0.4
	l-0.1,1.2C58.8,107,58.7,107.1,58.5,107.1z"/>
<path style="fill:#ED4898;" d="M75.5,105.1c-0.1,0-0.1,0-0.3-0.1c-0.1-0.1-0.4-0.4-0.9-0.4c-0.1,0-0.3-0.1-0.3-0.3s0.1-0.3,0.3-0.3
	c0.5,0,1.1,0.3,1.3,0.5C75.8,104.7,75.8,105,75.5,105.1C75.7,105.1,75.5,105.1,75.5,105.1z"/>
<path style="fill:#ED4898;" d="M59.2,104.8c-0.1,0-0.3,0-0.3-0.1c-0.1-0.1,0-0.4,0.1-0.4c0.3-0.1,0.7-0.3,0.9-0.3l0,0h0.4
	c0.1,0,0.3,0.1,0.3,0.3c0,0.1-0.1,0.3-0.3,0.3l0,0H60l0,0c-0.3,0-0.5,0-0.7,0.1C59.3,104.7,59.3,104.8,59.2,104.8z"/>
<path style="fill:#ED4898;" d="M73.1,104.6L73.1,104.6h-1.3c-0.1,0-0.3-0.1-0.3-0.3s0.1-0.3,0.3-0.3l0,0h1.3c0.1,0,0.3,0.1,0.3,0.3
	S73.3,104.6,73.1,104.6z"/>
<path style="fill:#ED4898;" d="M70.6,104.6L70.6,104.6h-1.3c-0.1,0-0.3-0.1-0.3-0.3s0.1-0.3,0.3-0.3l0,0h1.3c0.1,0,0.3,0.1,0.3,0.3
	S70.7,104.6,70.6,104.6z"/>
<path style="fill:#ED4898;" d="M68.1,104.6L68.1,104.6h-1.3c-0.1,0-0.3-0.1-0.3-0.3s0.1-0.3,0.3-0.3l0,0h1.3c0.1,0,0.3,0.1,0.3,0.3
	S68.2,104.6,68.1,104.6z"/>
<path style="fill:#ED4898;" d="M65.6,104.6L65.6,104.6h-1.3c-0.1,0-0.3-0.1-0.3-0.3s0.1-0.3,0.3-0.3l0,0h1.3c0.1,0,0.3,0.1,0.3,0.3
	S65.7,104.6,65.6,104.6z"/>
<path style="fill:#ED4898;" d="M63,104.6L63,104.6h-1.3c-0.1,0-0.3-0.1-0.3-0.3s0.1-0.3,0.3-0.3l0,0H63c0.1,0,0.3,0.1,0.3,0.3
	S63.2,104.6,63,104.6z"/>
<path style="fill:#ED4898;" d="M67.4,110.2l1.7,2c0,0,0.1,0.1,0.3,0.1l4,0.3c0.3,0,0.4,0.1,0.1,0.3l-2.8,1.5c-0.1,0-0.1,0.1-0.1,0.1
	l0.8,2.1c0,0.1-0.3,0.3-0.4,0.1l-3.7-1.1c-0.1,0-0.1,0-0.3,0l-3.7,1.1c-0.3,0-0.5,0-0.4-0.1l0.8-2.1c0,0,0-0.1-0.1-0.1l-2.8-1.5
	c-0.1-0.1,0-0.3,0.1-0.3l4-0.3c0.1,0,0.1,0,0.3-0.1l1.7-1.9C67,110.1,67.3,110.1,67.4,110.2z"/>
<path style="fill:#ED4898;" d="M87.6,102.4L87.6,102.4h19c0.8,0,1.7,0.4,2,0.9l13.9,22c0.3,0.5-0.3,0.9-1.5,0.9l0,0H94.6
	c-1.1,0-2.1-0.4-2.3-0.9l-6-22C86.3,102.8,86.8,102.4,87.6,102.4 M87.6,100.4L87.6,100.4c-1.1,0-2,0.4-2.5,1.2
	c-0.5,0.7-0.7,1.3-0.4,2.1l6,22c0.4,1.7,2.5,2.3,4.1,2.3h26.4c1.5,0,2.7-0.5,3.1-1.5c0.4-0.8,0.4-1.6-0.1-2.4l-13.9-21.9
	c-0.8-1.2-2.4-1.7-3.6-1.7L87.6,100.4L87.6,100.4L87.6,100.4z"/>
<path style="fill:#ED4898;" d="M115.5,123.1h-1.3c-0.1,0-0.3-0.1-0.3-0.3c0-0.1,0.1-0.3,0.3-0.3l0,0h1.3c0.5,0,0.8-0.1,0.8-0.1
	c0.1-0.1,0.4-0.1,0.4,0.1c0.1,0.1,0.1,0.4-0.1,0.4C116.4,122.9,116,123.1,115.5,123.1z"/>
<path style="fill:#ED4898;" d="M112.9,123.1h-1.3c-0.1,0-0.3-0.1-0.3-0.3c0-0.1,0.1-0.3,0.3-0.3h1.3c0.1,0,0.3,0.1,0.3,0.3
	C113.2,122.9,113.2,123.1,112.9,123.1z"/>
<path style="fill:#ED4898;" d="M107.9,123.1L107.9,123.1h-1.3c-0.1,0-0.3-0.1-0.3-0.3c0-0.1,0.1-0.3,0.3-0.3l0,0h1.3
	c0.1,0,0.3,0.1,0.3,0.3C108.3,122.9,108.2,123.1,107.9,123.1z"/>
<path style="fill:#ED4898;" d="M105.4,123.1H104c-0.1,0-0.3-0.1-0.3-0.3c0-0.1,0.1-0.3,0.3-0.3h1.3c0.1,0,0.3,0.1,0.3,0.3
	C105.6,122.9,105.6,123.1,105.4,123.1z"/>
<path style="fill:#ED4898;" d="M102.8,123.1L102.8,123.1h-1.3c-0.1,0-0.3-0.1-0.3-0.3c0-0.1,0.1-0.3,0.3-0.3l0,0h1.3
	c0.1,0,0.3,0.1,0.3,0.3C103.2,122.9,103.1,123.1,102.8,123.1z"/>
<path style="fill:#ED4898;" d="M100.3,123.1L100.3,123.1H99c-0.1,0-0.3-0.1-0.3-0.3c0-0.1,0.1-0.3,0.3-0.3l0,0h1.3
	c0.1,0,0.3,0.1,0.3,0.3C100.7,122.9,100.6,123.1,100.3,123.1z"/>
<path style="fill:#ED4898;" d="M97.8,123.1L97.8,123.1H97c-0.1,0-0.3,0-0.4,0c-0.1,0-0.3-0.1-0.3-0.4c0-0.1,0.1-0.3,0.4-0.3
	c0.1,0,0.3,0,0.4,0h0.8c0.1,0,0.3,0.1,0.3,0.3C98.2,122.9,98.1,123.1,97.8,123.1z"/>
<path style="fill:#ED4898;" d="M95.4,122.5c-0.1,0-0.1,0-0.3-0.1c-0.1-0.1-0.3-0.3-0.3-0.4l-0.3-0.9c0-0.1,0-0.4,0.3-0.4
	c0.1,0,0.4,0,0.4,0.3l0.3,0.9c0,0,0,0,0.1,0.1c0.1,0.1,0.1,0.3,0,0.4C95.6,122.5,95.6,122.5,95.4,122.5z"/>
<path style="fill:#ED4898;" d="M116.2,121.7c-0.1,0-0.3,0-0.3-0.1l-0.7-1.1c-0.1-0.1,0-0.4,0.1-0.4c0.1-0.1,0.4,0,0.4,0.1l0.7,1.1
	c0.1,0.1,0,0.4-0.1,0.4C116.4,121.7,116.2,121.7,116.2,121.7z"/>
<path style="fill:#ED4898;" d="M94.6,120.1c-0.1,0-0.3-0.1-0.3-0.3l-0.4-1.2c0-0.1,0-0.4,0.3-0.4s0.4,0,0.4,0.3l0.4,1.2
	C94.9,119.9,94.8,120.1,94.6,120.1L94.6,120.1z"/>
<path style="fill:#ED4898;" d="M114.9,119.5c-0.1,0-0.3,0-0.3-0.1l-0.7-1.1c-0.1-0.1,0-0.4,0.1-0.4c0.1-0.1,0.4,0,0.4,0.1l0.7,1.1
	c0.1,0.1,0,0.4-0.1,0.4C115.1,119.5,115.1,119.5,114.9,119.5z"/>
<path style="fill:#ED4898;" d="M93.8,117.7c-0.1,0-0.3-0.1-0.3-0.3l-0.4-1.2c0-0.1,0-0.4,0.3-0.4c0.1,0,0.4,0,0.4,0.3l0.4,1.2
	C94.1,117.4,94.1,117.7,93.8,117.7L93.8,117.7z"/>
<path style="fill:#ED4898;" d="M113.7,117.3c-0.1,0-0.3,0-0.3-0.1l-0.7-1.1c-0.1-0.1,0-0.4,0.1-0.4c0.1-0.1,0.4,0,0.4,0.1l0.7,1.1
	c0.1,0.1,0,0.4-0.1,0.4C113.7,117.3,113.7,117.3,113.7,117.3z"/>
<path style="fill:#ED4898;" d="M93,115.3c-0.1,0-0.3-0.1-0.3-0.3l-0.4-1.2c0-0.1,0-0.4,0.3-0.4c0.1,0,0.4,0,0.4,0.3l0.4,1.2
	C93.3,115,93.3,115.3,93,115.3L93,115.3z"/>
<path style="fill:#ED4898;" d="M112.4,115.2c-0.1,0-0.3,0-0.3-0.1l-0.7-1.1c-0.1-0.1,0-0.4,0.1-0.4c0.1-0.1,0.4,0,0.4,0.1l0.7,1.1
	c0.1,0.1,0,0.4-0.1,0.4H112.4z"/>
<path style="fill:#ED4898;" d="M111.1,112.9c-0.1,0-0.3,0-0.3-0.1l-0.7-1.1c-0.1-0.1,0-0.4,0.1-0.4c0.1-0.1,0.4,0,0.4,0.1l0.7,1.1
	c0.1,0.1,0,0.4-0.1,0.4C111.2,112.9,111.2,112.9,111.1,112.9z"/>
<path style="fill:#ED4898;" d="M92.2,112.9c-0.1,0-0.3-0.1-0.3-0.3l-0.4-1.2c0-0.1,0-0.4,0.3-0.4c0.1,0,0.4,0,0.4,0.3l0.4,1.2
	C92.6,112.6,92.5,112.9,92.2,112.9L92.2,112.9z"/>
<path style="fill:#ED4898;" d="M109.7,110.7c-0.1,0-0.3,0-0.3-0.1l-0.7-1.1c-0.1-0.1,0-0.4,0.1-0.4c0.1-0.1,0.4,0,0.4,0.1l0.7,1.1
	c0.1,0.1,0,0.4-0.1,0.4C109.9,110.7,109.9,110.7,109.7,110.7z"/>
<path style="fill:#ED4898;" d="M91.4,110.5c-0.1,0-0.3-0.1-0.3-0.3l-0.4-1.2c0-0.1,0-0.4,0.3-0.4c0.1,0,0.4,0,0.4,0.3l0.4,1.2
	C91.8,110.2,91.7,110.3,91.4,110.5C91.6,110.5,91.4,110.5,91.4,110.5z"/>
<path style="fill:#ED4898;" d="M108.6,108.6c-0.1,0-0.3,0-0.3-0.1l-0.7-1.1c-0.1-0.1,0-0.4,0.1-0.4c0.1-0.1,0.4,0,0.4,0.1l0.7,1.1
	c0.1,0.1,0,0.4-0.1,0.4H108.6z"/>
<path style="fill:#ED4898;" d="M90.6,108.1c-0.1,0-0.3-0.1-0.3-0.3l-0.4-1.2c0-0.1,0-0.4,0.3-0.4c0.1,0,0.4,0,0.4,0.3l0.4,1.2
	C91,107.8,90.9,107.9,90.6,108.1C90.8,108.1,90.8,108.1,90.6,108.1z"/>
<path style="fill:#ED4898;" d="M107.2,106.3c-0.1,0-0.3,0-0.3-0.1l-0.5-0.9c-0.1-0.1-0.1-0.4,0-0.5c0.1-0.1,0.3-0.1,0.4,0
	c0,0,0,0.1,0.1,0.1l0.5,0.9c0.1,0.1,0,0.4-0.1,0.4C107.4,106.3,107.2,106.3,107.2,106.3z"/>
<path style="fill:#ED4898;" d="M89.8,105.6c-0.1,0-0.3-0.1-0.3-0.3l-0.1-0.3c0-0.1,0-0.1,0-0.3c0-0.4,0.3-0.7,0.8-0.8
	c0.1,0,0.4,0,0.4,0.3c0,0.1,0,0.4-0.3,0.4c-0.3,0-0.3,0.1-0.3,0.3l0.1,0.3C90.2,105.4,90.1,105.5,89.8,105.6
	C90,105.6,90,105.6,89.8,105.6z"/>
<path style="fill:#ED4898;" d="M105.5,104.7L105.5,104.7c-0.1,0-0.3,0-0.4,0h-0.8c-0.1,0-0.3-0.1-0.3-0.3c0-0.1,0.1-0.3,0.3-0.3l0,0
	h0.8c0.1,0,0.4,0,0.5,0s0.3,0.3,0.3,0.4C105.8,104.6,105.6,104.7,105.5,104.7z"/>
<path style="fill:#ED4898;" d="M103,104.6L103,104.6h-1.3c-0.1,0-0.3-0.1-0.3-0.3s0.1-0.3,0.3-0.3l0,0h1.3c0.1,0,0.3,0.1,0.3,0.3
	S103.1,104.6,103,104.6z"/>
<path style="fill:#ED4898;" d="M100.5,104.6L100.5,104.6h-1.3c-0.1,0-0.3-0.1-0.3-0.3s0.1-0.3,0.3-0.3l0,0h1.3
	c0.1,0,0.3,0.1,0.3,0.3S100.6,104.6,100.5,104.6z"/>
<path style="fill:#ED4898;" d="M97.9,104.6L97.9,104.6h-1.3c-0.1,0-0.3-0.1-0.3-0.3s0.1-0.3,0.3-0.3l0,0h1.3c0.1,0,0.3,0.1,0.3,0.3
	S98.1,104.6,97.9,104.6z"/>
<path style="fill:#ED4898;" d="M95.4,104.6L95.4,104.6h-1.3c-0.1,0-0.3-0.1-0.3-0.3s0.1-0.3,0.3-0.3l0,0h1.3c0.1,0,0.3,0.1,0.3,0.3
	S95.6,104.6,95.4,104.6z"/>
<path style="fill:#ED4898;" d="M92.9,104.6L92.9,104.6h-1.3c-0.1,0-0.3-0.1-0.3-0.3s0.1-0.3,0.3-0.3l0,0h1.3c0.1,0,0.3,0.1,0.3,0.3
	S93,104.6,92.9,104.6z"/>
<path style="fill:#ED4898;" d="M109.5,113.7l-6.6,1.5l-8-1.5c-0.3,0-0.4-0.3-0.1-0.3l6.6-1.5l8,1.5
	C109.6,113.4,109.7,113.6,109.5,113.7z"/>
<path style="fill:#ED4898;" d="M103.5,117.4l-4.5-3.9l0.9-3.9c0-0.1,0.4-0.1,0.5,0l4.5,3.9l-0.9,3.9
	C104.2,117.6,103.6,117.6,103.5,117.4z"/>
<path style="fill:#ED4898;" d="M108.6,116.4l-8.1-1.7l-4.6-3.8c-0.1-0.1,0-0.3,0.3-0.3l7.6,1.7l5.2,3.8
	C109.1,116.2,108.8,116.5,108.6,116.4z"/>
<path style="fill:#ED4898;" d="M97.7,116.1l1.7-3.8l6.1-1.7c0.1-0.1,0.5,0.1,0.5,0.3l-1.3,3.8l-6.5,1.7
	C97.9,116.4,97.7,116.2,97.7,116.1z"/>
<path style="fill:#ED4898;" d="M27.9,102.3L27.9,102.3h19c0.8,0,1.3,0.4,1.2,0.9l-6.1,22c-0.1,0.5-1.2,0.9-2.3,0.9l0,0H13.3
	c-1.1,0-1.7-0.4-1.5-0.9l14.1-22C26.2,102.7,27.1,102.3,27.9,102.3 M27.9,100.4L27.9,100.4c-1.2,0-2.8,0.5-3.6,1.7l-14.1,22
	c-0.5,0.8-0.5,1.6-0.1,2.4c0.5,0.9,1.6,1.5,3.1,1.5h26.4c1.6,0,3.6-0.5,4.1-2.3l6.1-22c0.3-0.8,0-1.5-0.4-2.1
	c-0.5-0.8-1.5-1.2-2.5-1.2H27.9L27.9,100.4L27.9,100.4z"/>
<path style="fill:#ED4898;" d="M37.3,122.9H36c-0.1,0-0.3-0.1-0.3-0.3s0.1-0.3,0.3-0.3l0,0h1.3c0.4,0,0.7,0,0.9-0.1
	c0.1,0,0.4,0,0.4,0.1c0,0.1,0,0.4-0.1,0.4C38.2,122.9,37.7,122.9,37.3,122.9z"/>
<path style="fill:#ED4898;" d="M34.8,122.9h-1.3c-0.1,0-0.3-0.1-0.3-0.3s0.1-0.3,0.3-0.3h1.3c0.1,0,0.3,0.1,0.3,0.3
	S34.9,122.9,34.8,122.9z"/>
<path style="fill:#ED4898;" d="M32.3,122.9L32.3,122.9h-1.3c-0.1,0-0.3-0.1-0.3-0.3s0.1-0.3,0.3-0.3l0,0h1.3c0.1,0,0.3,0.1,0.3,0.3
	S32.4,122.9,32.3,122.9z"/>
<path style="fill:#ED4898;" d="M29.8,122.9L29.8,122.9h-1.3c-0.1,0-0.3-0.1-0.3-0.3s0.1-0.3,0.3-0.3l0,0h1.3c0.1,0,0.3,0.1,0.3,0.3
	S29.9,122.9,29.8,122.9z"/>
<path style="fill:#ED4898;" d="M27.2,122.9h-1.3c-0.1,0-0.3-0.1-0.3-0.3s0.1-0.3,0.3-0.3h1.3c0.1,0,0.3,0.1,0.3,0.3
	S27.4,122.9,27.2,122.9z"/>
<path style="fill:#ED4898;" d="M24.7,122.9L24.7,122.9h-1.3c-0.1,0-0.3-0.1-0.3-0.3s0.1-0.3,0.3-0.3l0,0h1.3c0.1,0,0.3,0.1,0.3,0.3
	S24.8,122.9,24.7,122.9z"/>
<path style="fill:#ED4898;" d="M22.2,122.9L22.2,122.9h-1.3c-0.1,0-0.3-0.1-0.3-0.3s0.1-0.3,0.3-0.3l0,0h1.3c0.1,0,0.3,0.1,0.3,0.3
	S22.3,122.9,22.2,122.9z"/>
<path style="fill:#ED4898;" d="M19.7,122.9L19.7,122.9h-0.8c-0.1,0-0.3,0-0.4,0s-0.3-0.1-0.3-0.4c0-0.1,0.1-0.3,0.4-0.3
	c0.1,0,0.3,0,0.4,0h0.8c0.1,0,0.3,0.1,0.3,0.3C19.9,122.8,19.8,122.9,19.7,122.9z"/>
<path style="fill:#ED4898;" d="M17.8,122.1L17.8,122.1c-0.3-0.1-0.3-0.3-0.3-0.4l0.5-1.1c0.1-0.1,0.3-0.1,0.4-0.1
	c0.1,0.1,0.1,0.3,0.1,0.4l-0.5,1.1C17.9,122.1,17.8,122.1,17.8,122.1z"/>
<path style="fill:#ED4898;" d="M39.2,121.9L39.2,121.9c-0.3-0.1-0.4-0.3-0.3-0.4l0.4-1.2c0-0.1,0.3-0.3,0.4-0.3s0.3,0.3,0.3,0.4
	l-0.4,1.2C39.4,121.9,39.3,121.9,39.2,121.9z"/>
<path style="fill:#ED4898;" d="M19,120L19,120c-0.3-0.1-0.3-0.3-0.3-0.4l0.7-1.2c0.1-0.1,0.3-0.1,0.4-0.1c0.1,0.1,0.1,0.3,0.1,0.4
	l-0.7,1.1C19.3,120,19.1,120,19,120z"/>
<path style="fill:#ED4898;" d="M40,119.5L40,119.5c-0.3-0.1-0.4-0.3-0.3-0.4l0.4-1.2c0-0.1,0.3-0.3,0.4-0.3s0.3,0.3,0.3,0.4
	l-0.4,1.2C40.2,119.5,40.1,119.5,40,119.5z"/>
<path style="fill:#ED4898;" d="M20.3,117.8L20.3,117.8c-0.3-0.1-0.3-0.3-0.3-0.4l0.7-1.1c0.1-0.1,0.3-0.1,0.4-0.1
	c0.1,0.1,0.1,0.3,0.1,0.4l-0.7,1.1C20.6,117.7,20.5,117.8,20.3,117.8z"/>
<path style="fill:#ED4898;" d="M40.8,117L40.8,117c-0.3-0.1-0.4-0.3-0.3-0.4l0.4-1.2c0-0.1,0.3-0.3,0.4-0.3s0.3,0.3,0.3,0.4
	l-0.5,1.2C41,116.9,40.9,117,40.8,117z"/>
<path style="fill:#ED4898;" d="M21.7,115.6h-0.1c-0.1-0.1-0.1-0.3-0.1-0.4l0.7-1.1c0.1-0.1,0.3-0.3,0.4-0.1c0.1,0.1,0.1,0.3,0.1,0.4
	l-0.7,1.1C21.8,115.6,21.8,115.6,21.7,115.6z"/>
<path style="fill:#ED4898;" d="M41.6,114.6L41.6,114.6c-0.3-0.1-0.4-0.3-0.3-0.4l0.4-1.2c0-0.1,0.3-0.3,0.4-0.3s0.3,0.3,0.3,0.4
	l-0.4,1.2C41.8,114.5,41.7,114.6,41.6,114.6z"/>
<path style="fill:#ED4898;" d="M23,113.4h-0.1c-0.1-0.1-0.1-0.3-0.1-0.4l0.7-1.1c0.1-0.1,0.3-0.3,0.4-0.1c0.1,0.1,0.1,0.3,0.1,0.4
	l-0.7,1.1C23.1,113.4,23,113.4,23,113.4z"/>
<path style="fill:#ED4898;" d="M42.4,112.2C42.4,112.2,42.2,112.2,42.4,112.2c-0.3-0.1-0.4-0.3-0.3-0.4l0.4-1.2
	c0-0.1,0.3-0.3,0.4-0.3s0.3,0.3,0.3,0.4l-0.4,1.2C42.6,112.1,42.5,112.2,42.4,112.2z"/>
<path style="fill:#ED4898;" d="M24.2,111.3H24c-0.1-0.1-0.1-0.3-0.1-0.4l0.7-1.1c0.1-0.1,0.3-0.1,0.4-0.1c0.1,0.1,0.1,0.3,0.1,0.4
	l-0.7,1.1C24.4,111.1,24.3,111.3,24.2,111.3z"/>
<path style="fill:#ED4898;" d="M43.2,109.8C43.2,109.8,43,109.8,43.2,109.8c-0.3-0.1-0.4-0.3-0.3-0.4l0.4-1.2c0-0.1,0.3-0.3,0.4-0.3
	s0.3,0.3,0.3,0.4l-0.4,1.2C43.4,109.7,43.3,109.8,43.2,109.8z"/>
<path style="fill:#ED4898;" d="M25.5,109h-0.1c-0.1-0.1-0.1-0.3-0.1-0.4l0.7-1.1c0.1-0.1,0.3-0.1,0.4-0.1c0.1,0.1,0.1,0.3,0.1,0.4
	l-0.7,1.1C25.8,109,25.6,109,25.5,109z"/>
<path style="fill:#ED4898;" d="M43.9,107.4C43.8,107.4,43.8,107.4,43.9,107.4c-0.3-0.1-0.4-0.3-0.3-0.4l0.4-1.2
	c0-0.1,0.3-0.3,0.4-0.3s0.3,0.3,0.3,0.4l-0.4,1.2C44.2,107.2,44.1,107.4,43.9,107.4z"/>
<path style="fill:#ED4898;" d="M26.8,106.8h-0.1c-0.1-0.1-0.1-0.3-0.1-0.4l0.7-1.1c0.1-0.1,0.3-0.1,0.4-0.1c0.1,0.1,0.1,0.3,0.1,0.4
	l-0.7,1.1C27,106.8,27,106.8,26.8,106.8z"/>
<path style="fill:#ED4898;" d="M44.5,105c-0.1,0-0.3,0-0.3-0.1s-0.3-0.3-0.7-0.3h-0.3c-0.1,0-0.3-0.1-0.3-0.3s0.1-0.3,0.3-0.3h0.3
	c0.5,0,0.9,0.1,1.2,0.5C44.9,104.7,44.7,105,44.5,105C44.6,105,44.6,105,44.5,105z"/>
<path style="fill:#ED4898;" d="M28.3,104.8c-0.1,0-0.3,0-0.3-0.1c-0.1-0.1,0-0.4,0.1-0.4c0.4-0.1,0.8-0.3,1.2-0.3h0.1
	c0.1,0,0.3,0.1,0.3,0.3c0,0.1-0.1,0.3-0.3,0.3h-0.1c-0.3,0-0.7,0.1-0.9,0.3C28.4,104.8,28.3,104.8,28.3,104.8z"/>
<path style="fill:#ED4898;" d="M42.1,104.6L42.1,104.6h-1.3c-0.1,0-0.3-0.1-0.3-0.3s0.1-0.3,0.3-0.3l0,0h1.3c0.1,0,0.3,0.1,0.3,0.3
	C42.5,104.4,42.2,104.6,42.1,104.6z"/>
<path style="fill:#ED4898;" d="M39.6,104.6L39.6,104.6h-1.3c-0.1,0-0.3-0.1-0.3-0.3s0.1-0.3,0.3-0.3l0,0h1.3c0.1,0,0.3,0.1,0.3,0.3
	C40,104.4,39.7,104.6,39.6,104.6z"/>
<path style="fill:#ED4898;" d="M37,104.6L37,104.6h-1.3c-0.1,0-0.3-0.1-0.3-0.3s0.1-0.3,0.3-0.3l0,0h1.2c0.1,0,0.3,0.1,0.3,0.3
	C37.3,104.4,37.2,104.6,37,104.6z"/>
<path style="fill:#ED4898;" d="M34.5,104.6L34.5,104.6h-1.3c-0.1,0-0.3-0.1-0.3-0.3s0.1-0.3,0.3-0.3l0,0h1.3c0.1,0,0.3,0.1,0.3,0.3
	S34.7,104.6,34.5,104.6z"/>
<path style="fill:#ED4898;" d="M32,104.6L32,104.6h-1.3c-0.1,0-0.3-0.1-0.3-0.3s0.1-0.3,0.3-0.3l0,0H32c0.1,0,0.3,0.1,0.3,0.3
	S32.1,104.6,32,104.6z"/>
<path style="fill:#ED4898;" d="M32.4,114.9c-1.5-0.5-2-1.5-1.5-2.5c0.5-0.9,1.9-1.7,3.2-2.1c0.3-0.1,0.3-0.3,0-0.3
	c-2.9,0-6.4,1.2-7.8,3.1c-1.3,1.5-0.5,3.1,1.9,3.8c3.1,0.8,7.3,0.1,9.6-1.5c0.1-0.1,0-0.3-0.3-0.3C35.9,115.3,34,115.4,32.4,114.9z"
	/>
</svg>
