<?xml version="1.0" encoding="utf-8"?>
<!-- Generator: Adobe Illustrator 25.2.1, SVG Export Plug-In . SVG Version: 6.00 Build 0)  -->
<svg version="1.1" id="Layer_1" xmlns="http://www.w3.org/2000/svg" xmlns:xlink="http://www.w3.org/1999/xlink" x="0px" y="0px"
	 viewBox="0 0 128 160" style="enable-background:new 0 0 128 160;" xml:space="preserve">
<g>
	<path style="fill:#FFFFFF;stroke:#000000;stroke-miterlimit:10;" d="M115.8,122.2V50c0-5.5-4.3-9.8-9.8-9.8H88.5v-7.8h5.9
		c3.3,0,5.9-2.5,5.9-5.9v-7.8c0-3.3-2.5-5.9-5.9-5.9H35.8c-3.3,0-5.9,2.5-5.9,5.9v7.8c0,3.3,2.5,5.9,5.9,5.9h5.9v7.8H24.1
		c-5.5,0-9.8,4.3-9.8,9.8v72.2c-5.5,0-9.8,4.3-9.8,9.8v2h121v-2C125.6,126.5,121.3,122.2,115.8,122.2z M33.9,26.6v-7.8
		c0-1.2,0.8-2,2-2h58.5c1.2,0,2,0.8,2,2v7.8c0,1.2-0.8,2-2,2H35.8C34.7,28.5,33.9,27.8,33.9,26.6z M45.6,32.4h39v7.8h-39V32.4z
		 M18.3,50c0-3.3,2.5-5.9,5.9-5.9h81.9c3.3,0,5.9,2.5,5.9,5.9v72.2H49.3c1.4-1.4,2.1-3.1,2.1-4.9c0-3.5-2.9-6.4-7.8-8V99.2
		c3.5-2,5.9-5.9,5.9-10.1c0-2.1-0.6-4.1-1.6-5.9h56.2c2.1,0,3.9-1.8,3.9-3.9V52c0-2.1-1.8-3.9-3.9-3.9h-78c-2.1,0-3.9,1.8-3.9,3.9
		v27.3c0,2.1,1.8,3.9,3.9,3.9h1.6c-1,1.8-1.6,3.7-1.6,5.9c0,4.3,2.3,8,5.9,10.1v10.1c-4.7,1.4-7.8,4.5-7.8,8c0,1.8,0.8,3.5,2.1,4.9
		h-8V50z M28,117.3c0-1.4,1.6-2.9,3.9-3.9v4.9h11.7v-4.9c2.3,1,3.9,2.3,3.9,3.9c0,2.3-4.1,4.9-9.8,4.9S28,119.7,28,117.3z M104.1,52
		v27.3H80.7V52C80.7,52,104.1,52,104.1,52z M76.8,79.3H53.4V52h23.4V79.3z M49.5,79.3h-5.3c-2-1.2-4.1-2-6.4-2s-4.7,0.8-6.4,2h-5.3
		V52h23.4V79.3z M37.8,81.2c4.3,0,7.8,3.5,7.8,7.8s-3.5,7.8-7.8,7.8S30,93.3,30,89S33.5,81.2,37.8,81.2z M37.8,100.7
		c0.6,0,1.4,0,2-0.2v13.9h-3.9v-13.9C36.4,100.7,37.2,100.7,37.8,100.7z M8.9,130c0.8-2.3,2.9-3.9,5.5-3.9h101.5
		c2.5,0,4.7,1.6,5.5,3.9H8.9z"/>
	<rect x="37.8" y="20.7" style="fill:#FFFFFF;stroke:#000000;stroke-miterlimit:10;" width="3.9" height="3.9"/>
	<rect x="45.6" y="20.7" style="fill:#FFFFFF;stroke:#000000;stroke-miterlimit:10;" width="39" height="3.9"/>
	<rect x="88.5" y="20.7" style="fill:#FFFFFF;stroke:#000000;stroke-miterlimit:10;" width="3.9" height="3.9"/>
	<polygon style="fill:#FFFFFF;stroke:#000000;stroke-miterlimit:10;" points="33.9,59.8 41.3,59.8 32.3,74.4 35.4,76.3 45.6,60.3 
		45.6,55.9 30,55.9 30,61.7 33.9,61.7 	"/>
	<polygon style="fill:#FFFFFF;stroke:#000000;stroke-miterlimit:10;" points="61.2,61.7 61.2,59.8 68.6,59.8 59.6,74.4 62.7,76.3 
		72.9,60.3 72.9,55.9 57.3,55.9 57.3,61.7 	"/>
	<polygon style="fill:#FFFFFF;stroke:#000000;stroke-miterlimit:10;" points="88.5,61.7 88.5,59.8 95.9,59.8 86.9,74.4 90.1,76.3 
		100.2,60.3 100.2,55.9 84.6,55.9 84.6,61.7 	"/>
	<path style="fill:#FFFFFF;stroke:#000000;stroke-miterlimit:10;" d="M92.4,98.8H108V87.1H92.4V98.8z M96.3,91h7.8v3.9h-7.8V91z"/>
	<path style="fill:#FFFFFF;stroke:#000000;stroke-miterlimit:10;" d="M72.9,98.8h15.6V87.1H72.9V98.8z M76.8,91h7.8v3.9h-7.8V91z"/>
	<path style="fill:#FFFFFF;stroke:#000000;stroke-miterlimit:10;" d="M53.4,98.8H69V87.1H53.4V98.8z M57.3,91h7.8v3.9h-7.8V91z"/>
	<path style="fill:#FFFFFF;stroke:#000000;stroke-miterlimit:10;" d="M100.2,102.7c-4.3,0-7.8,3.5-7.8,7.8c0,4.3,3.5,7.8,7.8,7.8
		c4.3,0,7.8-3.5,7.8-7.8C108,106.2,104.5,102.7,100.2,102.7z M100.2,114.4c-2.1,0-3.9-1.8-3.9-3.9c0-2.1,1.8-3.9,3.9-3.9
		c2.1,0,3.9,1.8,3.9,3.9C104.1,112.6,102.4,114.4,100.2,114.4z"/>
	<path style="fill:#FFFFFF;stroke:#000000;stroke-miterlimit:10;" d="M80.7,102.7c-4.3,0-7.8,3.5-7.8,7.8c0,4.3,3.5,7.8,7.8,7.8
		s7.8-3.5,7.8-7.8C88.5,106.2,85,102.7,80.7,102.7z M80.7,114.4c-2.1,0-3.9-1.8-3.9-3.9c0-2.1,1.8-3.9,3.9-3.9s3.9,1.8,3.9,3.9
		C84.6,112.6,82.8,114.4,80.7,114.4z"/>
	<path style="fill:#FFFFFF;stroke:#000000;stroke-miterlimit:10;" d="M61.2,102.7c-4.3,0-7.8,3.5-7.8,7.8c0,4.3,3.5,7.8,7.8,7.8
		s7.8-3.5,7.8-7.8C69,106.2,65.5,102.7,61.2,102.7z M61.2,114.4c-2.1,0-3.9-1.8-3.9-3.9c0-2.1,1.8-3.9,3.9-3.9
		c2.1,0,3.9,1.8,3.9,3.9C65.1,112.6,63.3,114.4,61.2,114.4z"/>
</g>
</svg>
