<?xml version="1.0" encoding="utf-8"?>
<!-- Generator: Adobe Illustrator 25.2.1, SVG Export Plug-In . SVG Version: 6.00 Build 0)  -->
<svg version="1.1" id="Layer_1" xmlns="http://www.w3.org/2000/svg" xmlns:xlink="http://www.w3.org/1999/xlink" x="0px" y="0px"
	 viewBox="0 0 128 160" style="enable-background:new 0 0 128 160;" xml:space="preserve">
<ellipse transform="matrix(0.6671 -0.745 0.745 0.6671 -50.0669 64.183)" style="fill:#FFFFFF;stroke:#000000;stroke-miterlimit:10;" cx="46.8" cy="88.1" rx="3.2" ry="1.7"/>
<circle style="fill:#FFFFFF;stroke:#000000;stroke-miterlimit:10;" cx="51.9" cy="58.4" r="1.7"/>
<circle style="fill:#FFFFFF;stroke:#000000;stroke-miterlimit:10;" cx="45.4" cy="66.2" r="1.7"/>
<ellipse transform="matrix(0.9546 -0.298 0.298 0.9546 -19.231 30.5852)" style="fill:#FFFFFF;stroke:#000000;stroke-miterlimit:10;" cx="90.7" cy="78.4" rx="1.7" ry="3.2"/>
<ellipse transform="matrix(0.9546 -0.298 0.298 0.9546 -22.4056 31.4245)" style="fill:#FFFFFF;stroke:#000000;stroke-miterlimit:10;" cx="91.8" cy="89.2" rx="1.7" ry="3.2"/>
<ellipse transform="matrix(0.9547 -0.2975 0.2975 0.9547 -25.4113 32.235)" style="fill:#FFFFFF;stroke:#000000;stroke-miterlimit:10;" cx="93.2" cy="99.6" rx="1.7" ry="3.2"/>
<path style="fill:#FFFFFF;stroke:#000000;stroke-miterlimit:10;" d="M59.3,23.4c-1-0.5-2.2,0-2.7,1c0,0,0,0,0,0l-8.4,18.1
	c-0.5,1,0,2.2,1,2.7s2.2,0,2.7-1l8.5-18.1C60.8,25.1,60.3,23.9,59.3,23.4C59.3,23.4,59.3,23.4,59.3,23.4z"/>
<path style="fill:#FFFFFF;stroke:#000000;stroke-miterlimit:10;" d="M70.8,17.7c-1-0.5-2.2,0-2.7,1c0,0,0,0,0,0l-8.9,19
	c-0.5,1,0,2.2,1,2.7c1,0.5,2.2,0,2.7-1l8.9-19C72.3,19.4,71.8,18.2,70.8,17.7C70.8,17.7,70.8,17.7,70.8,17.7z"/>
<path style="fill:#FFFFFF;stroke:#000000;stroke-miterlimit:10;" d="M71.2,31.1l-8.5,18.1c-0.5,1,0,2.2,1,2.7c1,0.5,2.2,0,2.7-1l0,0
	l8.4-18.1c0.4-1-0.1-2.2-1.1-2.6C72.8,29.8,71.7,30.2,71.2,31.1L71.2,31.1z"/>
<path style="fill:#FFFFFF;stroke:#000000;stroke-miterlimit:10;" d="M93.3,38.4c-1-0.5-2.2,0-2.7,1c0,0,0,0,0,0l-8.4,18.1
	c-0.5,1,0,2.2,1,2.7c1,0.5,2.2,0,2.7-1L94.3,41C94.8,40,94.3,38.9,93.3,38.4C93.3,38.4,93.3,38.4,93.3,38.4z"/>
<path style="fill:#FFFFFF;stroke:#000000;stroke-miterlimit:10;" d="M94.3,55.3c1,0.5,2.2,0,2.7-1c0,0,0,0,0,0l8.9-19
	c0.4-1-0.1-2.2-1.1-2.6c-1-0.4-2,0-2.5,0.9l-8.9,19C92.8,53.6,93.2,54.8,94.3,55.3C94.2,55.3,94.2,55.3,94.3,55.3z"/>
<path style="fill:#FFFFFF;stroke:#000000;stroke-miterlimit:10;" d="M107.8,45.1c-1-0.5-2.2,0-2.7,1c0,0,0,0,0,0l-8.4,18.1
	c-0.5,1,0,2.2,1,2.7s2.2,0,2.7-1l8.4-18.1C109.3,46.8,108.8,45.6,107.8,45.1C107.8,45.1,107.8,45.1,107.8,45.1z"/>
<path style="fill:#FFFFFF;stroke:#000000;stroke-miterlimit:10;" d="M3,129.5h124c1.1,0,2-0.9,2-2c0-0.2,0-0.4-0.1-0.6l-14.1-44.3
	c-0.3-0.8-1-1.4-1.9-1.4h-3.6l1.3,1.5c1,1.2,1.4,2.7,1.4,4.2l12.3,38.6H5.7l12.8-40.3h1.8l-2.2-4H17c-0.9,0-1.6,0.6-1.9,1.4
	L1.1,126.9c-0.3,1.1,0.3,2.2,1.3,2.5C2.6,129.5,2.8,129.5,3,129.5z"/>
<path style="fill:#FFFFFF;stroke:#000000;stroke-miterlimit:10;" d="M28.6,49.5c-0.6,0.1-1.2,0.4-1.5,1l0,0c0,0,0,0.1-0.1,0.2
	c0,0.1-0.1,0.1-0.1,0.2l-7.2,23.6c-0.2,0.5-0.1,1.1,0.1,1.5l12.3,22.5c0,0.1,0.1,0.1,0.1,0.1c0,0.1,0.1,0.1,0.1,0.2l0,0.1l0.1,0.1
	c0.1,0.1,0.2,0.1,0.2,0.2l0.2,0.1l0.3,0.1l0.2,0.1c0.1,0,0.3,0.1,0.4,0.1h0.3l17.6-1.7c-1.9-0.2-3.6-1.3-4.6-3
	c-0.1-0.2-0.2-0.3-0.2-0.5l-10.3,1l5.5-20.2l13.3-1l0,0l2.1-3.7l0.3-0.5l0,0l-16.1,1.2l-9.5-17.6l23-0.6l6.8,10.5
	c1-0.9,2.3-1.4,3.7-1.4h0.2l-7.9-12.3c-0.4-0.6-1-0.9-1.7-0.9l-27,0.7C28.9,49.5,28.8,49.5,28.6,49.5z M31.5,72.5
	c0.9,0.7,1.1,2,0.6,3c-0.5,1.1-1.5,1.6-2.4,1.1c-0.9-0.7-1.1-2-0.6-3C29.6,72.4,30.7,71.9,31.5,72.5L31.5,72.5z"/>
<path style="fill:#FFFFFF;stroke:#000000;stroke-miterlimit:10;" d="M68.7,112.1l25.7,1h0.1h0.3h0.1l0.2-0.1l0.3-0.1l0.2-0.1
	c0.1-0.1,0.2-0.1,0.3-0.2l0.1-0.1c0.1-0.1,0.2-0.3,0.3-0.4l0,0l0,0l11.5-24.5c0.3-0.7,0.2-1.5-0.3-2.1L91.3,66l-0.1-0.1
	c-0.1-0.1-0.1-0.1-0.2-0.2l-0.2-0.1l-0.2-0.1c-0.1,0-0.2-0.1-0.3-0.1h-0.1c-0.1,0-0.3,0-0.4,0h-0.3l-23.9,0.8c-0.7,0-1.3,0.4-1.7,1
	L50.8,90.5c-0.1,0.1-0.2,0.3-0.3,0.5c-0.3,0.6-0.2,1.3,0.1,1.8l0,0c0,0,0.1,0.1,0.1,0.1c0,0.1,0.1,0.2,0.2,0.2l16.5,18.2
	C67.7,111.8,68.2,112.1,68.7,112.1z M90.2,70.9l13.4,16l-9.7,20.8L79.4,92.5L90.2,70.9z M74.2,103.9c-1.1,0.4-2.3,0-2.9-1
	c-0.7-1-0.6-2.1,0.3-2.6c1.1-0.4,2.3,0,2.9,1C75.3,102.3,75.1,103.4,74.2,103.9L74.2,103.9z M72.6,83.9c0.9-0.3,1.9,0.2,2.1,1.1
	c0.3,0.9-0.2,1.9-1.1,2.1c-0.9,0.3-1.8-0.2-2.1-1.1C71.2,85.1,71.7,84.2,72.6,83.9C72.7,83.9,72.7,83.9,72.6,83.9L72.6,83.9z
	 M69.5,74c0.9-0.3,1.9,0.2,2.1,1.1c0.3,0.9-0.2,1.9-1.1,2.1c-0.9,0.3-1.8-0.2-2.1-1.1C68.1,75.2,68.6,74.3,69.5,74
	C69.5,74,69.5,74,69.5,74L69.5,74z"/>
</svg>
