<?xml version="1.0" encoding="utf-8"?>
<!-- Generator: Adobe Illustrator 25.2.1, SVG Export Plug-In . SVG Version: 6.00 Build 0)  -->
<svg version="1.1" id="Layer_1" xmlns="http://www.w3.org/2000/svg" xmlns:xlink="http://www.w3.org/1999/xlink" x="0px" y="0px"
	 viewBox="0 0 128 160" style="enable-background:new 0 0 128 160;" xml:space="preserve">
<path style="fill:#FFFFFF;stroke:#000000;stroke-miterlimit:10;" d="M108.8,79.7c0.5-1.6,0.8-3.3,0.8-5c0-2.5-0.6-4.9-1.7-7.2
	l-2.1-4.3c6.6-2.9,10.9-9,10.9-15.7c0-9.6-8.7-17.4-19.3-17.4S78,37.9,78,47.5c0,0.6,0,1.1,0.1,1.7c-1.9-0.1-3.8-0.1-5.4-0.1
	c-3.1,0-6.1,0.1-9,0.3L61.5,39c-1.1-5.2-6.2-8.9-12.1-8.9H23.5c-2.9,0-5.3,2.1-5.3,4.8s2.4,4.8,5.3,4.8h25.9c0.8,0,1.6,0.5,1.7,1.3
	l2.2,10c-6.5,1.3-9.9,3.2-10.4,5.7l-5.4,11c-1.1,2.3-1.7,4.7-1.7,7.2c0,3.8,1.3,7.4,3.8,10.4c-0.1,0-0.3,0.1-0.4,0.1L37,86
	c-2.5,0.9-4.7,2.2-6.6,3.9l-4.2,3.8l-5.1-2.3L7.7,112.1v16.3h34.4l13.8-21.3l-2.7-1.2c2.8-1.9,6.1-2.9,9.6-2.9h2.9v3.8
	c-6.5,1.2-10.5,3.9-10.5,7.3v6.3c0,4.5,7.6,7.9,17.6,7.9s17.6-3.4,17.6-7.9v-6.3c0-3.4-4-6.1-10.5-7.3V103h3.9
	c3.7,0,7.2-0.9,10.4-2.6l15.9-8.8c2.2-1.2,3.5-3.3,3.5-5.7C113.4,83.1,111.5,80.7,108.8,79.7z M45,60.2c5.3,3.6,19.5,4.7,27.8,4.7
	s22.5-1.1,27.8-4.7l4.2,8.6c0.6,1.1,0.9,2.3,1.1,3.5c-4.7-2.8-13-4.2-20.9-4.2c-9.3,0-19.8,3.4-26.4,6.5c-6-3.2-11.7-5.9-17.6-6.4
	L45,60.2z M89.1,50.3c-0.4-0.9-0.6-1.8-0.6-2.8c0-4.4,3.9-7.9,8.8-7.9s8.8,3.6,8.8,7.9c0,3-1.9,5.7-4.7,7
	C99.3,52.4,94.5,51.1,89.1,50.3z M85.1,71.3c11.7,0,19.6,2.8,20.9,5.6c-0.1,0.8-0.3,1.5-0.6,2.2c-2.7,2.7-11.7,4.9-20.3,4.9
	c-8.1,0-15.6-3.6-22.8-7.4C68.5,73.9,77.3,71.3,85.1,71.3z M86.5,90c0.3-0.6,0.5-1.2,0.5-1.9c0-0.4-0.1-0.7-0.2-1
	c5.1-0.2,10.6-1,14.9-2.5c-1.1,1-2.3,1.9-3.7,2.7c-4.1,2.2-8.5,3.8-13.1,4.8C85.5,91.4,86.1,90.7,86.5,90z M81.6,47.5
	c0-7.9,7.1-14.3,15.8-14.3s15.8,6.4,15.8,14.3c0,5.4-3.5,10.4-8.8,12.7l-1.4-2.9c4.1-1.9,6.7-5.7,6.7-9.9c0-6.1-5.5-11.1-12.3-11.1
	c-6.8,0-12.3,5-12.3,11.1c0,0.8,0.1,1.5,0.3,2.3c-1.2-0.1-2.4-0.2-3.6-0.3C81.6,48.8,81.6,48.1,81.6,47.5z M72.8,52.2
	c17.1,0,26.4,3.4,26.4,4.8s-9.2,4.8-26.4,4.8c-2.2,0-4.3-0.1-6.3-0.2l-2-9C67.2,52.4,69.9,52.2,72.8,52.2z M49.4,36.4H23.5
	c-1,0-1.8-0.7-1.8-1.6s0.8-1.6,1.8-1.6h25.9c4.2,0,7.8,2.7,8.6,6.4l4.8,21.7c-1.3-0.1-2.5-0.2-3.7-0.4l-4.6-20.7
	C54.1,38,51.9,36.4,49.4,36.4z M54,53.9l1.4,6.5c-6-1.1-9.1-2.6-9.1-3.4C46.4,56.7,47.8,55.2,54,53.9z M39.4,74.7
	c0-1.2,0.2-2.3,0.5-3.4c6,0.2,12.3,3.5,18.9,7c3.8,2,7.6,4,11.6,5.6H46.5c-1.1,0-2.1,0.1-3.2,0.2C40.8,81.6,39.4,78.2,39.4,74.7z
	 M40.1,125.2H11.2v-12.3l11.2-17.4L51,108.4L40.1,125.2z M72.8,125.2c-8.6,0-14.1-2.8-14.1-4.8V119c3.2,1.9,8.2,3.1,14.1,3.1
	s10.9-1.2,14.1-3.1v1.5C86.8,122.4,81.4,125.2,72.8,125.2z M79.8,114.1V110c4.6,1,7,2.7,7,4.1c0,1.9-5.5,4.8-14.1,4.8
	s-14.1-2.8-14.1-4.8c0-1.3,2.5-3.1,7-4.1v4.1h3.5V103h7v11.1H79.8z M108,88.8l-15.9,8.8c-2.6,1.4-5.5,2.2-8.5,2.2H62.8
	c-4.9,0-9.5,1.6-13.1,4.5l-20.2-9.1l3.3-3c1.6-1.4,3.4-2.5,5.5-3.2l2.1-0.8c1.9-0.7,4-1,6-1h35.9c0.6,0,1.1,0.4,1.1,1
	c0,0.2,0,0.3-0.1,0.4c-1.5,2.6-4.2,4.4-7.4,4.8c-1.1,0.1-2.1,0.1-3.2,0.1H50.1v3.2h24.5c0.5,0,1.1,0,1.6-0.1
	c8.3-0.5,16.5-2.7,23.8-6.5c3.3-1.7,5.9-4.3,7.6-7.3c1.4,0.5,2.3,1.8,2.3,3.2C109.8,87.1,109.2,88.2,108,88.8z"/>
</svg>
