<?xml version="1.0" encoding="utf-8"?>
<!-- Generator: Adobe Illustrator 25.2.1, SVG Export Plug-In . SVG Version: 6.00 Build 0)  -->
<svg version="1.1" id="Layer_1" xmlns="http://www.w3.org/2000/svg" xmlns:xlink="http://www.w3.org/1999/xlink" x="0px" y="0px"
	 viewBox="0 0 128 160" style="enable-background:new 0 0 128 160;" xml:space="preserve">
<g>
	<path style="fill:#FFFFFF;stroke:#000000;stroke-miterlimit:10;" d="M113.1,70c0-18.7-20.1-33.9-44.7-33.9S23.6,51.3,23.6,70
		s20.1,33.9,44.7,33.9S113.1,88.7,113.1,70z M66.9,100.6c3.2-0.3,5.7-2.3,5.7-4.8c0-2.7-2.9-4.8-6.4-4.8s-6.4,2.2-6.4,4.8
		c0,2.3,2.1,4.2,4.9,4.7c-9-0.6-17.1-3.4-23.4-7.8L59.4,79c2.5,1.4,5.6,2.3,8.9,2.3c3.3,0,6.4-0.8,8.9-2.3l18.1,13.7
		c-7.2,4.9-16.6,7.9-27,7.9C67.9,100.6,67.4,100.6,66.9,100.6z M66.2,97.4c-1.2,0-2.1-0.7-2.1-1.6s1-1.6,2.1-1.6
		c1.2,0,2.1,0.7,2.1,1.6S67.4,97.4,66.2,97.4z M68.3,61.9c5.9,0,10.6,3.6,10.6,8.1c0,4.4-4.8,8.1-10.6,8.1c-5.9,0-10.6-3.6-10.6-8.1
		C57.7,65.5,62.5,61.9,68.3,61.9z M108.8,70c0,7.9-4,15-10.4,20.5L80.3,76.7c1.9-1.9,3-4.2,3-6.7s-1.1-4.9-3-6.7l18.1-13.7
		C104.8,55,108.8,62.1,108.8,70z M95.4,47.2L77.2,61c-2.5-1.4-5.6-2.3-8.9-2.3c-3.3,0-6.4,0.8-8.9,2.3L41.3,47.2
		c7.2-4.9,16.6-7.9,27-7.9S88.2,42.4,95.4,47.2z M27.9,70c0-7.9,4-15,10.4-20.5l18.1,13.7c-1.9,1.9-3,4.2-3,6.7s1.1,4.9,3,6.7
		L38.3,90.5C31.8,85,27.9,77.9,27.9,70z"/>
	<path style="fill:#FFFFFF;stroke:#000000;stroke-miterlimit:10;" d="M81.1,87.7c-3.5,0-6.4,2.2-6.4,4.8s2.9,4.8,6.4,4.8
		c3.5,0,6.4-2.2,6.4-4.8S84.6,87.7,81.1,87.7z M81.1,94.2c-1.2,0-2.1-0.7-2.1-1.6s1-1.6,2.1-1.6c1.2,0,2.1,0.7,2.1,1.6
		S82.3,94.2,81.1,94.2z"/>
	<path style="fill:#FFFFFF;stroke:#000000;stroke-miterlimit:10;" d="M93.9,66.8c0,2.7,2.9,4.8,6.4,4.8s6.4-2.2,6.4-4.8
		s-2.9-4.8-6.4-4.8S93.9,64.1,93.9,66.8z M102.4,66.8c0,0.9-1,1.6-2.1,1.6s-2.1-0.7-2.1-1.6s1-1.6,2.1-1.6S102.4,65.9,102.4,66.8z"
		/>
	<path style="fill:#FFFFFF;stroke:#000000;stroke-miterlimit:10;" d="M91.8,71.6c-3.5,0-6.4,2.2-6.4,4.8c0,2.7,2.9,4.8,6.4,4.8
		c3.5,0,6.4-2.2,6.4-4.8C98.1,73.8,95.3,71.6,91.8,71.6z M91.8,78.1c-1.2,0-2.1-0.7-2.1-1.6c0-0.9,1-1.6,2.1-1.6s2.1,0.7,2.1,1.6
		C93.9,77.3,92.9,78.1,91.8,78.1z"/>
	<path style="fill:#FFFFFF;stroke:#000000;stroke-miterlimit:10;" d="M61.9,81.3c-3.5,0-6.4,2.2-6.4,4.8s2.9,4.8,6.4,4.8
		c3.5,0,6.4-2.2,6.4-4.8S65.5,81.3,61.9,81.3z M61.9,87.7c-1.2,0-2.1-0.7-2.1-1.6s1-1.6,2.1-1.6c1.2,0,2.1,0.7,2.1,1.6
		S63.1,87.7,61.9,87.7z"/>
	<path style="fill:#FFFFFF;stroke:#000000;stroke-miterlimit:10;" d="M40.6,86.1c3.5,0,6.4-2.2,6.4-4.8s-2.9-4.8-6.4-4.8
		c-3.5,0-6.4,2.2-6.4,4.8S37.1,86.1,40.6,86.1z M40.6,79.7c1.2,0,2.1,0.7,2.1,1.6c0,0.9-1,1.6-2.1,1.6s-2.1-0.7-2.1-1.6
		C38.5,80.4,39.5,79.7,40.6,79.7z"/>
	<path style="fill:#FFFFFF;stroke:#000000;stroke-miterlimit:10;" d="M42.8,71.6c0-2.7-2.9-4.8-6.4-4.8c-3.5,0-6.4,2.2-6.4,4.8
		s2.9,4.8,6.4,4.8C39.9,76.4,42.8,74.3,42.8,71.6z M34.3,71.6c0-0.9,1-1.6,2.1-1.6s2.1,0.7,2.1,1.6s-1,1.6-2.1,1.6
		S34.3,72.5,34.3,71.6z"/>
	<path style="fill:#FFFFFF;stroke:#000000;stroke-miterlimit:10;" d="M47,70c3.5,0,6.4-2.2,6.4-4.8s-2.9-4.8-6.4-4.8
		s-6.4,2.2-6.4,4.8S43.5,70,47,70z M47,63.5c1.2,0,2.1,0.7,2.1,1.6s-1,1.6-2.1,1.6s-2.1-0.7-2.1-1.6S45.9,63.5,47,63.5z"/>
	<path style="fill:#FFFFFF;stroke:#000000;stroke-miterlimit:10;" d="M121.6,126.4v-11.3c0-0.9-1-1.6-2.1-1.6H74.7V110
		c26.4-2.4,46.9-19.4,46.9-40c0-22.2-23.9-40.3-53.2-40.3c-11.2,0-21.6,2.6-30.2,7.1l-3-2.3l2.8-2.1l-3-2.3L20,41.4l3,2.3l2.8-2.1
		l2.5,1.9C20.1,50.6,15.1,59.9,15.1,70c0,20.6,20.5,37.6,46.9,40v3.5H17.2c-1.2,0-2.1,0.7-2.1,1.6v11.3h-4.3v3.2h115v-3.2H121.6z
		 M32.1,36.8l2.6,2c-1.2,0.8-2.4,1.6-3.6,2.4l-2.4-1.8L32.1,36.8z M19.4,70c0-20.5,22-37.1,49-37.1s49,16.6,49,37.1
		s-22,37.1-49,37.1S19.4,90.4,19.4,70z M66.2,110.3c0.7,0,1.4,0,2.1,0s1.4,0,2.1,0v3.3h-4.3V110.3z M19.4,116.8h98v9.7h-98V116.8z"
		/>
	<rect x="23.6" y="120" style="fill:#FFFFFF;stroke:#000000;stroke-miterlimit:10;" width="4.3" height="3.2"/>
	<rect x="32.1" y="120" style="fill:#FFFFFF;stroke:#000000;stroke-miterlimit:10;" width="4.3" height="3.2"/>
	<rect x="40.6" y="120" style="fill:#FFFFFF;stroke:#000000;stroke-miterlimit:10;" width="4.3" height="3.2"/>
	<rect x="49.2" y="120" style="fill:#FFFFFF;stroke:#000000;stroke-miterlimit:10;" width="4.3" height="3.2"/>
	<rect x="57.7" y="120" style="fill:#FFFFFF;stroke:#000000;stroke-miterlimit:10;" width="4.3" height="3.2"/>
	<rect x="66.2" y="120" style="fill:#FFFFFF;stroke:#000000;stroke-miterlimit:10;" width="4.3" height="3.2"/>
	<rect x="74.7" y="120" style="fill:#FFFFFF;stroke:#000000;stroke-miterlimit:10;" width="38.3" height="3.2"/>
</g>
</svg>
