<svg xmlns="http://www.w3.org/2000/svg" xmlns:xlink="http://www.w3.org/1999/xlink" version="1.1" x="0px" y="0px" viewBox="0 0 64 80" style="enable-background:new 0 0 64 64;" xml:space="preserve"><g><path d="M53,26c0-11.58-9.421-21-21-21s-21,9.42-21,21s9.421,21,21,21S53,37.58,53,26z M31.334,44.966C32.83,44.798,34,43.54,34,42   c0-1.654-1.346-3-3-3s-3,1.346-3,3c0,1.419,0.993,2.604,2.319,2.915c-4.216-0.372-8.03-2.132-11.007-4.813l8.504-8.504   C28.985,32.474,30.43,33,32,33c1.57,0,3.015-0.526,4.184-1.402l8.504,8.504C41.32,43.136,36.879,45,32,45   C31.775,45,31.557,44.974,31.334,44.966z M31,43c-0.552,0-1-0.449-1-1s0.448-1,1-1s1,0.449,1,1S31.552,43,31,43z M32,21   c2.757,0,5,2.243,5,5s-2.243,5-5,5s-5-2.243-5-5S29.243,21,32,21z M51,26c0,4.879-1.864,9.32-4.898,12.688l-8.504-8.504   C38.474,29.015,39,27.57,39,26s-0.526-3.015-1.402-4.184l8.504-8.504C49.136,16.68,51,21.121,51,26z M44.688,11.898l-8.504,8.504   C35.015,19.526,33.57,19,32,19c-1.57,0-3.015,0.526-4.184,1.402l-8.504-8.504C22.68,8.864,27.121,7,32,7S41.32,8.864,44.688,11.898   z M13,26c0-4.879,1.864-9.32,4.898-12.688l8.504,8.504C25.526,22.985,25,24.43,25,26s0.526,3.015,1.402,4.184l-8.504,8.504   C14.864,35.32,13,30.879,13,26z"/><path d="M38,37c-1.654,0-3,1.346-3,3s1.346,3,3,3s3-1.346,3-3S39.654,37,38,37z M38,41c-0.552,0-1-0.449-1-1s0.448-1,1-1   s1,0.449,1,1S38.552,41,38,41z"/><path d="M44,24c0,1.654,1.346,3,3,3s3-1.346,3-3s-1.346-3-3-3S44,22.346,44,24z M48,24c0,0.551-0.448,1-1,1s-1-0.449-1-1   s0.448-1,1-1S48,23.449,48,24z"/><path d="M43,27c-1.654,0-3,1.346-3,3s1.346,3,3,3s3-1.346,3-3S44.654,27,43,27z M43,31c-0.552,0-1-0.449-1-1s0.448-1,1-1   s1,0.449,1,1S43.552,31,43,31z"/><path d="M29,33c-1.654,0-3,1.346-3,3s1.346,3,3,3s3-1.346,3-3S30.654,33,29,33z M29,37c-0.552,0-1-0.449-1-1s0.448-1,1-1   s1,0.449,1,1S29.552,37,29,37z"/><path d="M19,36c1.654,0,3-1.346,3-3s-1.346-3-3-3s-3,1.346-3,3S17.346,36,19,36z M19,32c0.552,0,1,0.449,1,1s-0.448,1-1,1   s-1-0.449-1-1S18.448,32,19,32z"/><path d="M20,27c0-1.654-1.346-3-3-3s-3,1.346-3,3s1.346,3,3,3S20,28.654,20,27z M16,27c0-0.551,0.448-1,1-1s1,0.449,1,1   s-0.448,1-1,1S16,27.551,16,27z"/><path d="M22,26c1.654,0,3-1.346,3-3s-1.346-3-3-3s-3,1.346-3,3S20.346,26,22,26z M22,22c0.552,0,1,0.449,1,1s-0.448,1-1,1   s-1-0.449-1-1S21.448,22,22,22z"/><path d="M57,61v-7c0-0.552-0.447-1-1-1H35v-2.186C47.375,49.326,57,38.769,57,26C57,12.215,45.785,1,32,1   c-5.257,0-10.138,1.635-14.168,4.418L16.414,4l1.293-1.293l-1.414-1.414l-7,7l1.414,1.414L12,8.414l1.169,1.169   C9.332,13.979,7,19.721,7,26c0,12.769,9.625,23.326,22,24.814V53H8c-0.553,0-1,0.448-1,1v7H5v2h54v-2H57z M15,5.414l1.216,1.216   c-0.581,0.474-1.138,0.975-1.673,1.498L13.414,7L15,5.414z M9,26C9,13.318,19.317,3,32,3s23,10.318,23,23S44.683,49,32,49   S9,38.682,9,26z M31,50.975C31.332,50.988,31.665,51,32,51s0.668-0.012,1-0.025V53h-2V50.975z M9,55h46v6H9V55z"/><rect x="11" y="57" width="2" height="2"/><rect x="15" y="57" width="2" height="2"/><rect x="19" y="57" width="2" height="2"/><rect x="23" y="57" width="2" height="2"/><rect x="27" y="57" width="2" height="2"/><rect x="31" y="57" width="2" height="2"/><rect x="35" y="57" width="18" height="2"/></g><text x="0" y="79" fill="#000000" font-size="5px" font-weight="bold" font-family="'Helvetica Neue', Helvetica, Arial-Unicode, Arial, Sans-serif">Created by Template</text><text x="0" y="84" fill="#000000" font-size="5px" font-weight="bold" font-family="'Helvetica Neue', Helvetica, Arial-Unicode, Arial, Sans-serif">from the Noun Project</text></svg>