<?xml version="1.0" encoding="utf-8"?>
<!-- Generator: Adobe Illustrator 25.2.1, SVG Export Plug-In . SVG Version: 6.00 Build 0)  -->
<svg version="1.1" id="Layer_1" xmlns="http://www.w3.org/2000/svg" xmlns:xlink="http://www.w3.org/1999/xlink" x="0px" y="0px"
	 viewBox="0 0 128 160" style="enable-background:new 0 0 128 160;" xml:space="preserve">
<g>
	<path style="fill:#ED4898;" d="M109.1,70c0-18.7-20.1-33.9-44.7-33.9S19.6,51.3,19.6,70s20.1,33.9,44.7,33.9S109.1,88.7,109.1,70z
		 M62.9,100.6c3.2-0.3,5.7-2.3,5.7-4.8c0-2.7-2.9-4.8-6.4-4.8s-6.4,2.2-6.4,4.8c0,2.3,2.1,4.2,4.9,4.7c-9-0.6-17.1-3.4-23.4-7.8
		L55.4,79c2.5,1.4,5.6,2.3,8.9,2.3c3.3,0,6.4-0.8,8.9-2.3l18.1,13.7c-7.2,4.9-16.6,7.9-27,7.9C63.9,100.6,63.4,100.6,62.9,100.6z
		 M62.2,97.4c-1.2,0-2.1-0.7-2.1-1.6s1-1.6,2.1-1.6s2.1,0.7,2.1,1.6S63.4,97.4,62.2,97.4z M64.3,61.9c5.9,0,10.6,3.6,10.6,8.1
		c0,4.4-4.8,8.1-10.6,8.1c-5.9,0-10.6-3.6-10.6-8.1C53.7,65.5,58.5,61.9,64.3,61.9z M104.8,70c0,7.9-4,15-10.4,20.5L76.3,76.7
		c1.9-1.9,3-4.2,3-6.7s-1.1-4.9-3-6.7l18.1-13.7C100.8,55,104.8,62.1,104.8,70z M91.4,47.2L73.2,61c-2.5-1.4-5.6-2.3-8.9-2.3
		c-3.3,0-6.4,0.8-8.9,2.3L37.3,47.2c7.2-4.9,16.6-7.9,27-7.9S84.2,42.4,91.4,47.2z M23.9,70c0-7.9,4-15,10.4-20.5l18.1,13.7
		c-1.9,1.9-3,4.2-3,6.7s1.1,4.9,3,6.7L34.3,90.5C27.8,85,23.9,77.9,23.9,70z"/>
	<path style="fill:#ED4898;" d="M77.1,87.7c-3.5,0-6.4,2.2-6.4,4.8s2.9,4.8,6.4,4.8c3.5,0,6.4-2.2,6.4-4.8S80.6,87.7,77.1,87.7z
		 M77.1,94.2c-1.2,0-2.1-0.7-2.1-1.6s1-1.6,2.1-1.6c1.2,0,2.1,0.7,2.1,1.6S78.3,94.2,77.1,94.2z"/>
	<path style="fill:#ED4898;" d="M89.9,66.8c0,2.7,2.9,4.8,6.4,4.8s6.4-2.2,6.4-4.8s-2.9-4.8-6.4-4.8S89.9,64.1,89.9,66.8z
		 M98.4,66.8c0,0.9-1,1.6-2.1,1.6s-2.1-0.7-2.1-1.6s1-1.6,2.1-1.6S98.4,65.9,98.4,66.8z"/>
	<path style="fill:#ED4898;" d="M87.8,71.6c-3.5,0-6.4,2.2-6.4,4.8c0,2.7,2.9,4.8,6.4,4.8c3.5,0,6.4-2.2,6.4-4.8
		C94.1,73.8,91.3,71.6,87.8,71.6z M87.8,78.1c-1.2,0-2.1-0.7-2.1-1.6c0-0.9,1-1.6,2.1-1.6s2.1,0.7,2.1,1.6
		C89.9,77.3,88.9,78.1,87.8,78.1z"/>
	<path style="fill:#ED4898;" d="M57.9,81.3c-3.5,0-6.4,2.2-6.4,4.8s2.9,4.8,6.4,4.8c3.5,0,6.4-2.2,6.4-4.8S61.5,81.3,57.9,81.3z
		 M57.9,87.7c-1.2,0-2.1-0.7-2.1-1.6s1-1.6,2.1-1.6c1.2,0,2.1,0.7,2.1,1.6S59.1,87.7,57.9,87.7z"/>
	<path style="fill:#ED4898;" d="M36.6,86.1c3.5,0,6.4-2.2,6.4-4.8s-2.9-4.8-6.4-4.8c-3.5,0-6.4,2.2-6.4,4.8S33.1,86.1,36.6,86.1z
		 M36.6,79.7c1.2,0,2.1,0.7,2.1,1.6c0,0.9-1,1.6-2.1,1.6s-2.1-0.7-2.1-1.6C34.5,80.4,35.5,79.7,36.6,79.7z"/>
	<path style="fill:#ED4898;" d="M38.8,71.6c0-2.7-2.9-4.8-6.4-4.8S26,68.9,26,71.6s2.9,4.8,6.4,4.8C35.9,76.4,38.8,74.3,38.8,71.6z
		 M30.3,71.6c0-0.9,1-1.6,2.1-1.6s2.1,0.7,2.1,1.6s-1,1.6-2.1,1.6S30.3,72.5,30.3,71.6z"/>
	<path style="fill:#ED4898;" d="M43,70c3.5,0,6.4-2.2,6.4-4.8s-2.9-4.8-6.4-4.8s-6.4,2.2-6.4,4.8S39.5,70,43,70z M43,63.5
		c1.2,0,2.1,0.7,2.1,1.6s-1,1.6-2.1,1.6s-2.1-0.7-2.1-1.6S41.9,63.5,43,63.5z"/>
	<path style="fill:#ED4898;" d="M117.6,126.4v-11.3c0-0.9-1-1.6-2.1-1.6H70.7V110c26.4-2.4,46.9-19.4,46.9-40
		c0-22.2-23.9-40.3-53.2-40.3c-11.2,0-21.6,2.6-30.2,7.1l-3-2.3l2.8-2.1l-3-2.3L16,41.4l3,2.3l2.8-2.1l2.5,1.9
		C16.1,50.6,11.1,59.9,11.1,70c0,20.6,20.5,37.6,46.9,40v3.5H13.2c-1.2,0-2.1,0.7-2.1,1.6v11.3H6.8v3.2h115v-3.2H117.6z M28.1,36.8
		l2.6,2c-1.2,0.8-2.4,1.6-3.6,2.4l-2.4-1.8L28.1,36.8z M15.4,70c0-20.5,22-37.1,49-37.1s49,16.6,49,37.1s-22,37.1-49,37.1
		S15.4,90.4,15.4,70z M62.2,110.3c0.7,0,1.4,0,2.1,0s1.4,0,2.1,0v3.3h-4.3V110.3z M15.4,116.8h98v9.7h-98V116.8z"/>
	<rect x="19.6" y="120" style="fill:#ED4898;" width="4.3" height="3.2"/>
	<rect x="28.1" y="120" style="fill:#ED4898;" width="4.3" height="3.2"/>
	<rect x="36.6" y="120" style="fill:#ED4898;" width="4.3" height="3.2"/>
	<rect x="45.2" y="120" style="fill:#ED4898;" width="4.3" height="3.2"/>
	<rect x="53.7" y="120" style="fill:#ED4898;" width="4.3" height="3.2"/>
	<rect x="62.2" y="120" style="fill:#ED4898;" width="4.3" height="3.2"/>
	<rect x="70.7" y="120" style="fill:#ED4898;" width="38.3" height="3.2"/>
</g>
</svg>
