<?xml version="1.0" encoding="utf-8"?>
<!-- Generator: Adobe Illustrator 25.2.1, SVG Export Plug-In . SVG Version: 6.00 Build 0)  -->
<svg version="1.1" id="Layer_1" xmlns="http://www.w3.org/2000/svg" xmlns:xlink="http://www.w3.org/1999/xlink" x="0px" y="0px"
	 viewBox="0 0 128 160" style="enable-background:new 0 0 128 160;" xml:space="preserve">
<path style="fill:#FFFFFF;stroke:#000000;stroke-miterlimit:10;" d="M80.6,31c-0.5,2.8-0.9,4.7-1.9,5.9c-4-3-8.8-4.7-14.1-4.7
	c-13.1,0-23.9,10.9-23.9,24.2c0,8.2,4.1,15.4,10.2,19.7c-1.2,0.7-1.9,1.3-1.9,2.3v2.4c-1.7,0.8-2.7,1.7-2.7,2.8V88
	c0,3.4,9.2,5.1,18.3,5.1c9,0,18.3-1.7,18.3-5.1v-4.4c0-1.1-0.9-2-2.7-2.8v-2.4c0-0.9-0.7-1.7-2.1-2.4c6.1-4.4,10.1-11.5,10.1-19.7
	c0-5.6-2-10.9-5.2-15c1.2-0.8,2.9-1.3,5.7-1.7C82.6,38.5,81.6,37.6,80.6,31z M64.9,85.2c-4.2,0-7.6-0.4-9.9-0.9v-2.4
	c2.8,0.7,6.4,0.9,9.9,0.9c3.6,0,7.3-0.4,10.1-0.9v2.4C72.6,84.8,69.3,85.2,64.9,85.2z M54.3,81.7v2.4c-0.4-0.1-0.8-0.3-1.2-0.4v-2.4
	C53.5,81.5,53.9,81.6,54.3,81.7z M75.7,84.1v-2.4c0.4-0.1,0.8-0.3,1.2-0.4v2.4C76.5,83.9,76.1,84,75.7,84.1z M52.4,81.2v2.4
	c-0.3-0.1-0.5-0.3-0.7-0.3v-2.3C51.9,80.9,52.2,81.1,52.4,81.2z M77.5,83.5v-2.4c0.3-0.1,0.5-0.1,0.7-0.3v2.3
	C77.9,83.2,77.8,83.3,77.5,83.5z M51.1,80.5v2.3c-0.4-0.3-0.5-0.5-0.5-0.7v-1.9C50.7,80.4,51,80.5,51.1,80.5z M49.9,86.7v2.7
	c-0.3-0.1-0.5-0.3-0.7-0.4v-2.7C49.5,86.6,49.7,86.6,49.9,86.7z M50.6,87c0.4,0.1,0.8,0.3,1.2,0.4v2.8c-0.4-0.1-0.8-0.3-1.2-0.4V87z
	 M79.2,87v2.7c-0.4,0.1-0.8,0.3-1.2,0.4v-2.8C78.5,87.2,78.8,87.1,79.2,87z M79.9,86.7c0.3-0.1,0.5-0.3,0.7-0.3v2.7
	c-0.3,0.1-0.4,0.3-0.7,0.4V86.7z M78.8,82.8v-2.3c0.1-0.1,0.3-0.1,0.4-0.3v1.9C79.2,82.3,79.1,82.5,78.8,82.8z M48.2,88v-2.1
	c0.1,0.1,0.3,0.1,0.4,0.3v2.5C48.3,88.4,48.2,88.2,48.2,88z M52.4,90.2v-2.8c3.4,0.8,8,1.3,12.5,1.3c4.5,0,9.2-0.4,12.5-1.3v2.8
	c-2.8,0.8-7,1.3-12.5,1.3C59.3,91.5,55.2,91,52.4,90.2z M81.2,88.6V86c0.1-0.1,0.3-0.1,0.4-0.3v2.1C81.6,88.2,81.5,88.4,81.2,88.6z
	 M64.8,77.8c-11.8,0-21.4-9.7-21.4-21.6S53,34.8,64.8,34.8c4.4,0,8.5,1.3,11.9,3.6c-1.1,0.5-2.7,0.8-4.6,1.2c6.5,1.1,7.4,2,8.5,8.6
	c0.4-2.1,0.7-3.6,1.2-4.8C84.4,47,86,51.4,86,56.2C86.1,68.2,76.5,77.8,64.8,77.8z"/>
<path style="fill:#FFFFFF;stroke:#000000;stroke-miterlimit:10;" d="M75.4,45.8c-2,1.5-2.5,1.5-4.5,0.1c1.5,2,1.5,2.5,0.1,4.6
	c2-1.5,2.5-1.5,4.5-0.1C73.9,48.5,73.9,47.9,75.4,45.8z"/>
<path style="fill:#FFFFFF;stroke:#000000;stroke-miterlimit:10;" d="M97.6,45.9c-2.5,0.4-2.9,0.1-4.1-2c0.4,2.5,0.1,3-2,4.2
	c2.5-0.4,2.9-0.1,4.1,2C95,47.5,95.3,47.1,97.6,45.9z"/>
<path style="fill:#FFFFFF;stroke:#000000;stroke-miterlimit:10;" d="M76.1,29.7c0-2.5,0.3-3,2.5-3.9c-2.5,0-2.9-0.3-3.8-2.5
	c0,2.5-0.3,3-2.5,3.9C74.9,27.1,75.1,27.4,76.1,29.7z"/>
<ellipse style="fill:#FFFFFF;stroke:#000000;stroke-miterlimit:10;" cx="79.6" cy="52.7" rx="1.2" ry="1.2"/>
<ellipse style="fill:#FFFFFF;stroke:#000000;stroke-miterlimit:10;" cx="93.3" cy="36.9" rx="1.2" ry="1.2"/>
<ellipse style="fill:#FFFFFF;stroke:#000000;stroke-miterlimit:10;" cx="80.8" cy="56.9" rx="0.5" ry="0.5"/>
<ellipse style="fill:#FFFFFF;stroke:#000000;stroke-miterlimit:10;" cx="73.3" cy="64.2" rx="0.5" ry="0.5"/>
<ellipse style="fill:#FFFFFF;stroke:#000000;stroke-miterlimit:10;" cx="62.9" cy="42.8" rx="0.5" ry="0.5"/>
<ellipse style="fill:#FFFFFF;stroke:#000000;stroke-miterlimit:10;" cx="93.8" cy="56.9" rx="0.5" ry="0.5"/>
<path style="fill:#FFFFFF;stroke:#000000;stroke-miterlimit:10;" d="M55.5,100.7L55.5,100.7h19c0.8,0,1.5,0.4,1.6,0.9l4,22
	c0.1,0.5-0.7,0.9-1.9,0.9l0,0H51.7c-1.1,0-1.9-0.4-1.9-0.9l4-22C54,101.1,54.7,100.7,55.5,100.7 M55.5,98.8L55.5,98.8
	c-1.7,0-3.2,1.1-3.4,2.4l-4,22c-0.1,0.7,0,1.3,0.5,1.9c0.7,0.8,1.7,1.2,3.2,1.2h26.4c1.3,0,2.5-0.4,3.2-1.2c0.4-0.5,0.7-1.2,0.5-1.9
	l-4-22c-0.3-1.5-1.7-2.4-3.4-2.4H55.5L55.5,98.8L55.5,98.8z"/>
<path style="fill:#FFFFFF;stroke:#000000;stroke-miterlimit:10;" d="M74.2,121.3h-1.3c-0.1,0-0.3-0.1-0.3-0.3c0-0.1,0.1-0.3,0.3-0.3
	l0,0h1.3c0.1,0,0.3,0.1,0.3,0.3C74.5,121.2,74.3,121.3,74.2,121.3z"/>
<path style="fill:#FFFFFF;stroke:#000000;stroke-miterlimit:10;" d="M71.7,121.3h-1.3c-0.1,0-0.3-0.1-0.3-0.3c0-0.1,0.1-0.3,0.3-0.3
	h1.3c0.1,0,0.3,0.1,0.3,0.3C72,121.2,71.8,121.3,71.7,121.3z"/>
<path style="fill:#FFFFFF;stroke:#000000;stroke-miterlimit:10;" d="M69.2,121.3L69.2,121.3h-1.3c-0.1,0-0.3-0.1-0.3-0.3
	c0-0.1,0.1-0.3,0.3-0.3l0,0h1.3c0.1,0,0.3,0.1,0.3,0.3C69.4,121.2,69.3,121.3,69.2,121.3z"/>
<path style="fill:#FFFFFF;stroke:#000000;stroke-miterlimit:10;" d="M66.6,121.3h-1.3c-0.1,0-0.3-0.1-0.3-0.3c0-0.1,0.1-0.3,0.3-0.3
	h1.3c0.1,0,0.3,0.1,0.3,0.3C66.9,121.2,66.8,121.3,66.6,121.3z"/>
<path style="fill:#FFFFFF;stroke:#000000;stroke-miterlimit:10;" d="M64.1,121.3L64.1,121.3h-1.3c-0.1,0-0.3-0.1-0.3-0.3
	c0-0.1,0.1-0.3,0.3-0.3l0,0h1.3c0.1,0,0.3,0.1,0.3,0.3C64.4,121.2,64.3,121.3,64.1,121.3z"/>
<path style="fill:#FFFFFF;stroke:#000000;stroke-miterlimit:10;" d="M61.6,121.3h-1.3c-0.1,0-0.3-0.1-0.3-0.3c0-0.1,0.1-0.3,0.3-0.3
	h1.3c0.1,0,0.3,0.1,0.3,0.3C61.9,121.2,61.7,121.3,61.6,121.3z"/>
<path style="fill:#FFFFFF;stroke:#000000;stroke-miterlimit:10;" d="M59,121.3L59,121.3h-1.3c-0.1,0-0.3-0.1-0.3-0.3
	c0-0.1,0.1-0.3,0.3-0.3l0,0H59c0.1,0,0.3,0.1,0.3,0.3C59.3,121.2,59.2,121.3,59,121.3z"/>
<path style="fill:#FFFFFF;stroke:#000000;stroke-miterlimit:10;" d="M56.4,121.3h-0.8c-0.1,0-0.4,0-0.5,0c-0.1,0-0.3-0.1-0.3-0.4
	c0-0.1,0.1-0.3,0.4-0.3c0.1,0,0.3,0,0.4,0h0.8c0.1,0,0.3,0.1,0.3,0.3C56.7,121,56.7,121.3,56.4,121.3z"/>
<path style="fill:#FFFFFF;stroke:#000000;stroke-miterlimit:10;" d="M75.4,121c-0.1,0-0.1,0-0.3-0.1c-0.1-0.1-0.1-0.4,0-0.4l0.1-0.1
	l-0.1-0.8c0-0.1,0.1-0.3,0.3-0.4c0.1,0,0.3,0.1,0.4,0.3l0.1,0.8c0,0.3-0.1,0.5-0.4,0.7C75.5,121,75.4,121,75.4,121z"/>
<path style="fill:#FFFFFF;stroke:#000000;stroke-miterlimit:10;" d="M54.2,120.6c-0.1,0-0.3-0.1-0.3-0.3v-0.1L54,119
	c0-0.1,0.1-0.3,0.4-0.3c0.1,0,0.3,0.1,0.3,0.4l-0.1,1.2C54.6,120.5,54.4,120.6,54.2,120.6C54.3,120.6,54.3,120.6,54.2,120.6z"/>
<path style="fill:#FFFFFF;stroke:#000000;stroke-miterlimit:10;" d="M75.4,118.6c-0.1,0-0.3-0.1-0.3-0.3l-0.1-1.2
	c0-0.1,0.1-0.3,0.3-0.4c0.1,0,0.3,0.1,0.4,0.3l0.1,1.2C75.7,118.4,75.5,118.6,75.4,118.6L75.4,118.6z"/>
<path style="fill:#FFFFFF;stroke:#000000;stroke-miterlimit:10;" d="M54.6,118.1L54.6,118.1c-0.3,0-0.3-0.1-0.3-0.3l0.1-1.2
	c0-0.1,0.1-0.3,0.4-0.3c0.1,0,0.3,0.1,0.3,0.4l-0.3,1.1C54.8,118.1,54.7,118.1,54.6,118.1z"/>
<path style="fill:#FFFFFF;stroke:#000000;stroke-miterlimit:10;" d="M75,116.1c-0.1,0-0.3-0.1-0.3-0.3l-0.1-1.2
	c0-0.1,0.1-0.3,0.3-0.4c0.1,0,0.3,0.1,0.4,0.3l0.1,1.2C75.4,115.9,75.3,116.1,75,116.1L75,116.1z"/>
<path style="fill:#FFFFFF;stroke:#000000;stroke-miterlimit:10;" d="M55,115.7C55,115.7,54.8,115.5,55,115.7c-0.3,0-0.4-0.1-0.3-0.4
	l0.1-1.2c0-0.1,0.1-0.3,0.4-0.3c0.1,0,0.3,0.1,0.3,0.4l-0.1,1.2C55.2,115.5,55.1,115.7,55,115.7z"/>
<path style="fill:#FFFFFF;stroke:#000000;stroke-miterlimit:10;" d="M74.6,113.5c-0.1,0-0.3-0.1-0.3-0.3l-0.1-1.2
	c0-0.1,0.1-0.3,0.3-0.4c0.1,0,0.3,0.1,0.4,0.3l0.1,1.2C75,113.4,74.9,113.5,74.6,113.5C74.7,113.5,74.7,113.5,74.6,113.5z"/>
<path style="fill:#FFFFFF;stroke:#000000;stroke-miterlimit:10;" d="M55.2,113.1L55.2,113.1c-0.3,0-0.4-0.1-0.3-0.4l0.1-1.2
	c0-0.1,0.1-0.3,0.4-0.3c0.1,0,0.3,0.1,0.3,0.4l-0.1,1.2C55.5,113,55.4,113.1,55.2,113.1z"/>
<path style="fill:#FFFFFF;stroke:#000000;stroke-miterlimit:10;" d="M74.3,111c-0.1,0-0.3-0.1-0.3-0.3l-0.1-1.2
	c0-0.1,0.1-0.3,0.3-0.4c0.1,0,0.3,0.1,0.4,0.3l0.1,1.2C74.6,110.8,74.6,111,74.3,111L74.3,111z"/>
<path style="fill:#FFFFFF;stroke:#000000;stroke-miterlimit:10;" d="M55.6,110.6L55.6,110.6c-0.3,0-0.4-0.1-0.3-0.4l0.1-1.2
	c0-0.1,0.1-0.3,0.4-0.3c0.1,0,0.3,0.1,0.3,0.4l-0.1,1.2C55.9,110.4,55.8,110.6,55.6,110.6z"/>
<path style="fill:#FFFFFF;stroke:#000000;stroke-miterlimit:10;" d="M73.9,108.4c-0.1,0-0.3-0.1-0.3-0.3l-0.1-1.2
	c0-0.1,0.1-0.3,0.3-0.4c0.1,0,0.3,0.1,0.4,0.3l0.1,1.2C74.3,108.3,74.2,108.4,73.9,108.4C74.1,108.4,74.1,108.4,73.9,108.4z"/>
<path style="fill:#FFFFFF;stroke:#000000;stroke-miterlimit:10;" d="M55.9,108L55.9,108c-0.3,0-0.4-0.1-0.3-0.4l0.1-1.2
	c0-0.1,0.1-0.3,0.4-0.3c0.1,0,0.3,0.1,0.3,0.4l-0.1,1.2C56.3,107.9,56.2,108,55.9,108z"/>
<path style="fill:#FFFFFF;stroke:#000000;stroke-miterlimit:10;" d="M73.7,105.9c-0.1,0-0.3-0.1-0.3-0.3l-0.3-1.2
	c0-0.1,0.1-0.3,0.3-0.4c0.1,0,0.3,0.1,0.4,0.3l0.1,1.2C73.9,105.8,73.8,105.9,73.7,105.9L73.7,105.9z"/>
<path style="fill:#FFFFFF;stroke:#000000;stroke-miterlimit:10;" d="M56.3,105.5L56.3,105.5c-0.3,0-0.4-0.1-0.3-0.4l0.1-1.2
	c0-0.1,0.1-0.3,0.4-0.3c0.1,0,0.3,0.1,0.3,0.4l-0.1,1.2C56.6,105.3,56.4,105.5,56.3,105.5z"/>
<path style="fill:#FFFFFF;stroke:#000000;stroke-miterlimit:10;" d="M73.3,103.5c-0.1,0-0.1,0-0.3-0.1c-0.1-0.1-0.4-0.4-0.9-0.4
	c-0.1,0-0.3-0.1-0.3-0.3c0-0.1,0.1-0.3,0.3-0.3c0.5,0,1.1,0.3,1.3,0.5C73.5,103.1,73.5,103.3,73.3,103.5
	C73.4,103.5,73.3,103.5,73.3,103.5z"/>
<path style="fill:#FFFFFF;stroke:#000000;stroke-miterlimit:10;" d="M57,103.2c-0.1,0-0.3,0-0.3-0.1c-0.1-0.1,0-0.4,0.1-0.4
	c0.3-0.1,0.7-0.3,0.9-0.3l0,0h0.4c0.1,0,0.3,0.1,0.3,0.3c0,0.1-0.1,0.3-0.3,0.3l0,0h-0.4l0,0c-0.3,0-0.5,0-0.7,0.1
	C57.1,103.1,57.1,103.2,57,103.2z"/>
<path style="fill:#FFFFFF;stroke:#000000;stroke-miterlimit:10;" d="M70.9,102.9L70.9,102.9h-1.3c-0.1,0-0.3-0.1-0.3-0.3
	c0-0.1,0.1-0.3,0.3-0.3l0,0h1.3c0.1,0,0.3,0.1,0.3,0.3C71.2,102.8,71,102.9,70.9,102.9z"/>
<path style="fill:#FFFFFF;stroke:#000000;stroke-miterlimit:10;" d="M68.4,102.9L68.4,102.9H67c-0.1,0-0.3-0.1-0.3-0.3
	c0-0.1,0.1-0.3,0.3-0.3l0,0h1.3c0.1,0,0.3,0.1,0.3,0.3C68.6,102.8,68.5,102.9,68.4,102.9z"/>
<path style="fill:#FFFFFF;stroke:#000000;stroke-miterlimit:10;" d="M65.8,102.9L65.8,102.9h-1.3c-0.1,0-0.3-0.1-0.3-0.3
	c0-0.1,0.1-0.3,0.3-0.3l0,0h1.3c0.1,0,0.3,0.1,0.3,0.3C66.1,102.8,66,102.9,65.8,102.9z"/>
<path style="fill:#FFFFFF;stroke:#000000;stroke-miterlimit:10;" d="M63.3,102.9L63.3,102.9H62c-0.1,0-0.3-0.1-0.3-0.3
	c0-0.1,0.1-0.3,0.3-0.3l0,0h1.3c0.1,0,0.3,0.1,0.3,0.3C63.6,102.8,63.5,102.9,63.3,102.9z"/>
<path style="fill:#FFFFFF;stroke:#000000;stroke-miterlimit:10;" d="M60.8,102.9L60.8,102.9h-1.3c-0.1,0-0.3-0.1-0.3-0.3
	c0-0.1,0.1-0.3,0.3-0.3l0,0h1.3c0.1,0,0.3,0.1,0.3,0.3C61.1,102.8,60.9,102.9,60.8,102.9z"/>
<path style="fill:#FFFFFF;stroke:#000000;stroke-miterlimit:10;" d="M65.2,108.6l1.7,2c0,0,0.1,0.1,0.3,0.1l4,0.3
	c0.3,0,0.4,0.1,0.1,0.3l-2.8,1.5c-0.1,0-0.1,0.1-0.1,0.1l0.8,2.1c0,0.1-0.3,0.3-0.4,0.1l-3.7-1.1c-0.1,0-0.1,0-0.3,0l-3.7,1.1
	c-0.3,0-0.5,0-0.4-0.1l0.8-2.1c0,0,0-0.1-0.1-0.1l-2.8-1.5c-0.1-0.1,0-0.3,0.1-0.3l4-0.3c0.1,0,0.1,0,0.3-0.1l1.7-1.9
	C64.8,108.4,65.1,108.4,65.2,108.6z"/>
<path style="fill:#FFFFFF;stroke:#000000;stroke-miterlimit:10;" d="M85.3,100.8L85.3,100.8h19c0.8,0,1.7,0.4,2,0.9l13.9,22
	c0.3,0.5-0.3,0.9-1.5,0.9l0,0H92.4c-1.1,0-2.1-0.4-2.3-0.9l-6-22C84,101.2,84.6,100.8,85.3,100.8 M85.3,98.8L85.3,98.8
	c-1.1,0-2,0.4-2.5,1.2c-0.5,0.7-0.7,1.3-0.4,2.1l6,22c0.4,1.7,2.5,2.3,4.1,2.3h26.4c1.5,0,2.7-0.5,3.1-1.5c0.4-0.8,0.4-1.6-0.1-2.4
	l-13.9-21.9c-0.8-1.2-2.4-1.7-3.6-1.7L85.3,98.8L85.3,98.8L85.3,98.8z"/>
<path style="fill:#FFFFFF;stroke:#000000;stroke-miterlimit:10;" d="M113.2,121.5h-1.3c-0.1,0-0.3-0.1-0.3-0.3
	c0-0.1,0.1-0.3,0.3-0.3l0,0h1.3c0.5,0,0.8-0.1,0.8-0.1c0.1-0.1,0.4-0.1,0.4,0.1c0.1,0.1,0.1,0.4-0.1,0.4
	C114.1,121.3,113.7,121.5,113.2,121.5z"/>
<path style="fill:#FFFFFF;stroke:#000000;stroke-miterlimit:10;" d="M110.7,121.5h-1.3c-0.1,0-0.3-0.1-0.3-0.3
	c0-0.1,0.1-0.3,0.3-0.3h1.3c0.1,0,0.3,0.1,0.3,0.3C111,121.3,111,121.5,110.7,121.5z"/>
<path style="fill:#FFFFFF;stroke:#000000;stroke-miterlimit:10;" d="M108.2,121.5L108.2,121.5h-1.3c-0.1,0-0.3-0.1-0.3-0.3
	c0-0.1,0.1-0.3,0.3-0.3l0,0h1.3c0.1,0,0.3,0.1,0.3,0.3C108.6,121.3,108.4,121.5,108.2,121.5z"/>
<path style="fill:#FFFFFF;stroke:#000000;stroke-miterlimit:10;" d="M105.6,121.5L105.6,121.5h-1.3c-0.1,0-0.3-0.1-0.3-0.3
	c0-0.1,0.1-0.3,0.3-0.3l0,0h1.3c0.1,0,0.3,0.1,0.3,0.3C106,121.3,105.9,121.5,105.6,121.5z"/>
<path style="fill:#FFFFFF;stroke:#000000;stroke-miterlimit:10;" d="M103.1,121.5h-1.3c-0.1,0-0.3-0.1-0.3-0.3
	c0-0.1,0.1-0.3,0.3-0.3h1.3c0.1,0,0.3,0.1,0.3,0.3C103.4,121.3,103.4,121.5,103.1,121.5z"/>
<path style="fill:#FFFFFF;stroke:#000000;stroke-miterlimit:10;" d="M100.6,121.5L100.6,121.5h-1.3c-0.1,0-0.3-0.1-0.3-0.3
	c0-0.1,0.1-0.3,0.3-0.3l0,0h1.3c0.1,0,0.3,0.1,0.3,0.3C101,121.3,100.9,121.5,100.6,121.5z"/>
<path style="fill:#FFFFFF;stroke:#000000;stroke-miterlimit:10;" d="M98.1,121.5L98.1,121.5h-1.3c-0.1,0-0.3-0.1-0.3-0.3
	c0-0.1,0.1-0.3,0.3-0.3l0,0h1.3c0.1,0,0.3,0.1,0.3,0.3C98.5,121.3,98.4,121.5,98.1,121.5z"/>
<path style="fill:#FFFFFF;stroke:#000000;stroke-miterlimit:10;" d="M95.6,121.5L95.6,121.5h-0.8c-0.1,0-0.3,0-0.4,0
	c-0.1,0-0.3-0.1-0.3-0.4c0-0.1,0.1-0.3,0.4-0.3c0.1,0,0.3,0,0.4,0h0.8c0.1,0,0.3,0.1,0.3,0.3C96,121.3,95.8,121.5,95.6,121.5z"/>
<path style="fill:#FFFFFF;stroke:#000000;stroke-miterlimit:10;" d="M93.2,120.9c-0.1,0-0.1,0-0.3-0.1c-0.1-0.1-0.3-0.3-0.3-0.4
	l-0.3-0.9c0-0.1,0-0.4,0.3-0.4c0.1,0,0.4,0,0.4,0.3l0.3,0.9c0,0,0,0,0.1,0.1c0.1,0.1,0.1,0.3,0,0.4
	C93.3,120.9,93.3,120.9,93.2,120.9z"/>
<path style="fill:#FFFFFF;stroke:#000000;stroke-miterlimit:10;" d="M114,120.1c-0.1,0-0.3,0-0.3-0.1l-0.7-1.1
	c-0.1-0.1,0-0.4,0.1-0.4c0.1-0.1,0.4,0,0.4,0.1l0.7,1.1c0.1,0.1,0,0.4-0.1,0.4C114.1,120.1,114,120.1,114,120.1z"/>
<path style="fill:#FFFFFF;stroke:#000000;stroke-miterlimit:10;" d="M92.4,118.5c-0.1,0-0.3-0.1-0.3-0.3l-0.4-1.2
	c0-0.1,0-0.4,0.3-0.4c0.3,0,0.4,0,0.4,0.3l0.4,1.2C92.6,118.2,92.5,118.5,92.4,118.5L92.4,118.5z"/>
<path style="fill:#FFFFFF;stroke:#000000;stroke-miterlimit:10;" d="M112.7,117.8c-0.1,0-0.3,0-0.3-0.1l-0.7-1.1
	c-0.1-0.1,0-0.4,0.1-0.4c0.1-0.1,0.4,0,0.4,0.1l0.7,1.1c0.1,0.1,0,0.4-0.1,0.4C112.8,117.8,112.8,117.8,112.7,117.8z"/>
<path style="fill:#FFFFFF;stroke:#000000;stroke-miterlimit:10;" d="M91.6,116.1c-0.1,0-0.3-0.1-0.3-0.3l-0.4-1.2
	c0-0.1,0-0.4,0.3-0.4c0.1,0,0.4,0,0.4,0.3l0.4,1.2C91.9,115.8,91.9,116.1,91.6,116.1L91.6,116.1z"/>
<path style="fill:#FFFFFF;stroke:#000000;stroke-miterlimit:10;" d="M111.5,115.7c-0.1,0-0.3,0-0.3-0.1l-0.7-1.1
	c-0.1-0.1,0-0.4,0.1-0.4c0.1-0.1,0.4,0,0.4,0.1l0.7,1.1c0.1,0.1,0,0.4-0.1,0.4C111.5,115.7,111.5,115.7,111.5,115.7z"/>
<path style="fill:#FFFFFF;stroke:#000000;stroke-miterlimit:10;" d="M90.8,113.7c-0.1,0-0.3-0.1-0.3-0.3l-0.4-1.2
	c0-0.1,0-0.4,0.3-0.4c0.1,0,0.4,0,0.4,0.3l0.4,1.2C91.1,113.4,91.1,113.7,90.8,113.7L90.8,113.7z"/>
<path style="fill:#FFFFFF;stroke:#000000;stroke-miterlimit:10;" d="M110.2,113.5c-0.1,0-0.3,0-0.3-0.1l-0.7-1.1
	c-0.1-0.1,0-0.4,0.1-0.4c0.1-0.1,0.4,0,0.4,0.1l0.7,1.1c0.1,0.1,0,0.4-0.1,0.4H110.2z"/>
<path style="fill:#FFFFFF;stroke:#000000;stroke-miterlimit:10;" d="M108.8,111.3c-0.1,0-0.3,0-0.3-0.1l-0.7-1.1
	c-0.1-0.1,0-0.4,0.1-0.4c0.1-0.1,0.4,0,0.4,0.1l0.7,1.1c0.1,0.1,0,0.4-0.1,0.4C109,111.3,109,111.3,108.8,111.3z"/>
<path style="fill:#FFFFFF;stroke:#000000;stroke-miterlimit:10;" d="M90,111.3c-0.1,0-0.3-0.1-0.3-0.3l-0.4-1.2c0-0.1,0-0.4,0.3-0.4
	c0.1,0,0.4,0,0.4,0.3l0.4,1.2C90.4,111,90.3,111.3,90,111.3L90,111.3z"/>
<path style="fill:#FFFFFF;stroke:#000000;stroke-miterlimit:10;" d="M107.5,109.1c-0.1,0-0.3,0-0.3-0.1l-0.7-1.1
	c-0.1-0.1,0-0.4,0.1-0.4c0.1-0.1,0.4,0,0.4,0.1l0.7,1.1c0.1,0.1,0,0.4-0.1,0.4C107.6,109.1,107.6,109.1,107.5,109.1z"/>
<path style="fill:#FFFFFF;stroke:#000000;stroke-miterlimit:10;" d="M89.2,108.8c-0.1,0-0.3-0.1-0.3-0.3l-0.4-1.2
	c0-0.1,0-0.4,0.3-0.4c0.1,0,0.4,0,0.4,0.3l0.4,1.2C89.6,108.6,89.5,108.7,89.2,108.8C89.3,108.8,89.2,108.8,89.2,108.8z"/>
<path style="fill:#FFFFFF;stroke:#000000;stroke-miterlimit:10;" d="M106.3,107c-0.1,0-0.3,0-0.3-0.1l-0.7-1.1
	c-0.1-0.1,0-0.4,0.1-0.4c0.1-0.1,0.4,0,0.4,0.1l0.7,1.1c0.1,0.1,0,0.4-0.1,0.4H106.3z"/>
<path style="fill:#FFFFFF;stroke:#000000;stroke-miterlimit:10;" d="M88.4,106.4c-0.1,0-0.3-0.1-0.3-0.3l-0.4-1.2
	c0-0.1,0-0.4,0.3-0.4c0.1,0,0.4,0,0.4,0.3l0.4,1.2C88.8,106.2,88.7,106.3,88.4,106.4C88.5,106.4,88.5,106.4,88.4,106.4z"/>
<path style="fill:#FFFFFF;stroke:#000000;stroke-miterlimit:10;" d="M105,104.7c-0.1,0-0.3,0-0.3-0.1l-0.5-0.9
	c-0.1-0.1-0.1-0.4,0-0.5s0.3-0.1,0.4,0c0,0,0,0.1,0.1,0.1l0.5,0.9c0.1,0.1,0,0.4-0.1,0.4C105.1,104.7,105,104.7,105,104.7z"/>
<path style="fill:#FFFFFF;stroke:#000000;stroke-miterlimit:10;" d="M87.6,104c-0.1,0-0.3-0.1-0.3-0.3l-0.1-0.3c0-0.1,0-0.1,0-0.3
	c0-0.4,0.3-0.7,0.8-0.8c0.1,0,0.4,0,0.4,0.3c0,0.1,0,0.4-0.3,0.4c-0.3,0-0.3,0.1-0.3,0.3l0.1,0.3C88,103.7,87.9,103.9,87.6,104
	C87.7,104,87.7,104,87.6,104z"/>
<path style="fill:#FFFFFF;stroke:#000000;stroke-miterlimit:10;" d="M103.3,103.1L103.3,103.1c-0.1,0-0.3,0-0.4,0h-0.8
	c-0.1,0-0.3-0.1-0.3-0.3c0-0.1,0.1-0.3,0.3-0.3l0,0h0.8c0.1,0,0.4,0,0.5,0s0.3,0.3,0.3,0.4C103.5,102.9,103.4,103.1,103.3,103.1z"/>
<path style="fill:#FFFFFF;stroke:#000000;stroke-miterlimit:10;" d="M100.7,102.9L100.7,102.9h-1.3c-0.1,0-0.3-0.1-0.3-0.3
	c0-0.1,0.1-0.3,0.3-0.3l0,0h1.3c0.1,0,0.3,0.1,0.3,0.3C101,102.8,100.9,102.9,100.7,102.9z"/>
<path style="fill:#FFFFFF;stroke:#000000;stroke-miterlimit:10;" d="M98.2,102.9L98.2,102.9h-1.3c-0.1,0-0.3-0.1-0.3-0.3
	c0-0.1,0.1-0.3,0.3-0.3l0,0h1.3c0.1,0,0.3,0.1,0.3,0.3C98.5,102.8,98.4,102.9,98.2,102.9z"/>
<path style="fill:#FFFFFF;stroke:#000000;stroke-miterlimit:10;" d="M95.7,102.9L95.7,102.9h-1.3c-0.1,0-0.3-0.1-0.3-0.3
	c0-0.1,0.1-0.3,0.3-0.3l0,0h1.3c0.1,0,0.3,0.1,0.3,0.3C96,102.8,95.8,102.9,95.7,102.9z"/>
<path style="fill:#FFFFFF;stroke:#000000;stroke-miterlimit:10;" d="M93.2,102.9L93.2,102.9h-1.3c-0.1,0-0.3-0.1-0.3-0.3
	c0-0.1,0.1-0.3,0.3-0.3l0,0h1.3c0.1,0,0.3,0.1,0.3,0.3C93.4,102.8,93.3,102.9,93.2,102.9z"/>
<path style="fill:#FFFFFF;stroke:#000000;stroke-miterlimit:10;" d="M90.7,102.9L90.7,102.9h-1.3c-0.1,0-0.3-0.1-0.3-0.3
	c0-0.1,0.1-0.3,0.3-0.3l0,0h1.3c0.1,0,0.3,0.1,0.3,0.3C90.9,102.8,90.8,102.9,90.7,102.9z"/>
<path style="fill:#FFFFFF;stroke:#000000;stroke-miterlimit:10;" d="M107.2,112.1l-6.6,1.5l-8-1.5c-0.3,0-0.4-0.3-0.1-0.3l6.6-1.5
	l8,1.5C107.4,111.8,107.5,111.9,107.2,112.1z"/>
<path style="fill:#FFFFFF;stroke:#000000;stroke-miterlimit:10;" d="M101.3,115.8l-4.5-3.9l0.9-3.9c0-0.1,0.4-0.1,0.5,0l4.5,3.9
	l-0.9,3.9C101.9,115.9,101.4,115.9,101.3,115.8z"/>
<path style="fill:#FFFFFF;stroke:#000000;stroke-miterlimit:10;" d="M106.3,114.7l-8.1-1.7l-4.6-3.8c-0.1-0.1,0-0.3,0.3-0.3l7.6,1.7
	l5.2,3.8C106.8,114.6,106.6,114.9,106.3,114.7z"/>
<path style="fill:#FFFFFF;stroke:#000000;stroke-miterlimit:10;" d="M95.4,114.5l1.7-3.8l6.1-1.7c0.1-0.1,0.5,0.1,0.5,0.3l-1.3,3.8
	l-6.5,1.7C95.7,114.7,95.4,114.6,95.4,114.5z"/>
<path style="fill:#FFFFFF;stroke:#000000;stroke-miterlimit:10;" d="M25.7,100.7L25.7,100.7h19c0.8,0,1.3,0.4,1.2,0.9l-6.1,22
	c-0.1,0.5-1.2,0.9-2.3,0.9l0,0H11.1c-1.1,0-1.7-0.4-1.5-0.9l14.1-22C23.9,101.1,24.9,100.7,25.7,100.7 M25.7,98.8L25.7,98.8
	c-1.2,0-2.8,0.5-3.6,1.7L8,122.5c-0.5,0.8-0.5,1.6-0.1,2.4c0.5,0.9,1.6,1.5,3.1,1.5h26.4c1.6,0,3.6-0.5,4.1-2.3l6.1-22
	c0.3-0.8,0-1.5-0.4-2.1c-0.5-0.8-1.5-1.2-2.5-1.2H25.7L25.7,98.8L25.7,98.8z"/>
<path style="fill:#FFFFFF;stroke:#000000;stroke-miterlimit:10;" d="M35.1,121.3h-1.3c-0.1,0-0.3-0.1-0.3-0.3c0-0.1,0.1-0.3,0.3-0.3
	l0,0h1.3c0.4,0,0.7,0,0.9-0.1c0.1,0,0.4,0,0.4,0.1c0,0.1,0,0.4-0.1,0.4C36,121.3,35.5,121.3,35.1,121.3z"/>
<path style="fill:#FFFFFF;stroke:#000000;stroke-miterlimit:10;" d="M32.6,121.3h-1.3c-0.1,0-0.3-0.1-0.3-0.3c0-0.1,0.1-0.3,0.3-0.3
	h1.3c0.1,0,0.3,0.1,0.3,0.3C32.8,121.2,32.7,121.3,32.6,121.3z"/>
<path style="fill:#FFFFFF;stroke:#000000;stroke-miterlimit:10;" d="M30,121.3L30,121.3h-1.3c-0.1,0-0.3-0.1-0.3-0.3
	c0-0.1,0.1-0.3,0.3-0.3l0,0H30c0.1,0,0.3,0.1,0.3,0.3C30.3,121.2,30.2,121.3,30,121.3z"/>
<path style="fill:#FFFFFF;stroke:#000000;stroke-miterlimit:10;" d="M27.5,121.3L27.5,121.3h-1.3c-0.1,0-0.3-0.1-0.3-0.3
	c0-0.1,0.1-0.3,0.3-0.3l0,0h1.3c0.1,0,0.3,0.1,0.3,0.3C27.8,121.2,27.6,121.3,27.5,121.3z"/>
<path style="fill:#FFFFFF;stroke:#000000;stroke-miterlimit:10;" d="M25,121.3h-1.3c-0.1,0-0.3-0.1-0.3-0.3c0-0.1,0.1-0.3,0.3-0.3
	H25c0.1,0,0.3,0.1,0.3,0.3C25.3,121.2,25.1,121.3,25,121.3z"/>
<path style="fill:#FFFFFF;stroke:#000000;stroke-miterlimit:10;" d="M22.5,121.3L22.5,121.3h-1.3c-0.1,0-0.3-0.1-0.3-0.3
	c0-0.1,0.1-0.3,0.3-0.3l0,0h1.3c0.1,0,0.3,0.1,0.3,0.3C22.7,121.2,22.6,121.3,22.5,121.3z"/>
<path style="fill:#FFFFFF;stroke:#000000;stroke-miterlimit:10;" d="M19.9,121.3L19.9,121.3h-1.3c-0.1,0-0.3-0.1-0.3-0.3
	c0-0.1,0.1-0.3,0.3-0.3l0,0h1.3c0.1,0,0.3,0.1,0.3,0.3C20.2,121.2,20.1,121.3,19.9,121.3z"/>
<path style="fill:#FFFFFF;stroke:#000000;stroke-miterlimit:10;" d="M17.4,121.3L17.4,121.3h-0.8c-0.1,0-0.3,0-0.4,0
	s-0.3-0.1-0.3-0.4c0-0.1,0.1-0.3,0.4-0.3c0.1,0,0.3,0,0.4,0h0.8c0.1,0,0.3,0.1,0.3,0.3C17.7,121.2,17.6,121.3,17.4,121.3z"/>
<path style="fill:#FFFFFF;stroke:#000000;stroke-miterlimit:10;" d="M15.6,120.5L15.6,120.5c-0.3-0.1-0.3-0.3-0.3-0.4l0.5-1.1
	c0.1-0.1,0.3-0.1,0.4-0.1c0.1,0.1,0.1,0.3,0.1,0.4l-0.5,1.1C15.7,120.5,15.6,120.5,15.6,120.5z"/>
<path style="fill:#FFFFFF;stroke:#000000;stroke-miterlimit:10;" d="M36.9,120.2L36.9,120.2c-0.3-0.1-0.4-0.3-0.3-0.4l0.4-1.2
	c0-0.1,0.3-0.3,0.4-0.3s0.3,0.3,0.3,0.4l-0.4,1.2C37.2,120.2,37.1,120.2,36.9,120.2z"/>
<path style="fill:#FFFFFF;stroke:#000000;stroke-miterlimit:10;" d="M16.8,118.4L16.8,118.4c-0.3-0.1-0.3-0.3-0.3-0.4l0.7-1.2
	c0.1-0.1,0.3-0.1,0.4-0.1c0.1,0.1,0.1,0.3,0.1,0.4l-0.7,1.1C17,118.4,16.9,118.4,16.8,118.4z"/>
<path style="fill:#FFFFFF;stroke:#000000;stroke-miterlimit:10;" d="M37.7,117.8L37.7,117.8c-0.3-0.1-0.4-0.3-0.3-0.4l0.4-1.2
	c0-0.1,0.3-0.3,0.4-0.3s0.3,0.3,0.3,0.4l-0.4,1.2C38,117.8,37.9,117.8,37.7,117.8z"/>
<path style="fill:#FFFFFF;stroke:#000000;stroke-miterlimit:10;" d="M18.1,116.2L18.1,116.2c-0.3-0.1-0.3-0.3-0.3-0.4l0.7-1.1
	c0.1-0.1,0.3-0.1,0.4-0.1c0.1,0.1,0.1,0.3,0.1,0.4l-0.7,1.1C18.4,116.1,18.2,116.2,18.1,116.2z"/>
<path style="fill:#FFFFFF;stroke:#000000;stroke-miterlimit:10;" d="M38.5,115.4L38.5,115.4c-0.3-0.1-0.4-0.3-0.3-0.4l0.4-1.2
	c0-0.1,0.3-0.3,0.4-0.3s0.3,0.3,0.3,0.4l-0.5,1.2C38.8,115.3,38.7,115.4,38.5,115.4z"/>
<path style="fill:#FFFFFF;stroke:#000000;stroke-miterlimit:10;" d="M19.4,113.9h-0.1c-0.1-0.1-0.1-0.3-0.1-0.4l0.7-1.1
	c0.1-0.1,0.3-0.3,0.4-0.1c0.1,0.1,0.1,0.3,0.1,0.4l-0.7,1.1C19.5,113.9,19.5,113.9,19.4,113.9z"/>
<path style="fill:#FFFFFF;stroke:#000000;stroke-miterlimit:10;" d="M39.3,113L39.3,113c-0.3-0.1-0.4-0.3-0.3-0.4l0.4-1.2
	c0-0.1,0.3-0.3,0.4-0.3s0.3,0.3,0.3,0.4l-0.4,1.2C39.6,112.9,39.4,113,39.3,113z"/>
<path style="fill:#FFFFFF;stroke:#000000;stroke-miterlimit:10;" d="M20.7,111.8h-0.1c-0.1-0.1-0.1-0.3-0.1-0.4l0.7-1.1
	c0.1-0.1,0.3-0.3,0.4-0.1c0.1,0.1,0.1,0.3,0.1,0.4l-0.7,1.1C20.9,111.8,20.7,111.8,20.7,111.8z"/>
<path style="fill:#FFFFFF;stroke:#000000;stroke-miterlimit:10;" d="M40.1,110.6C40.1,110.6,40,110.6,40.1,110.6
	c-0.3-0.1-0.4-0.3-0.3-0.4l0.4-1.2c0-0.1,0.3-0.3,0.4-0.3s0.3,0.3,0.3,0.4l-0.4,1.2C40.4,110.4,40.2,110.6,40.1,110.6z"/>
<path style="fill:#FFFFFF;stroke:#000000;stroke-miterlimit:10;" d="M21.9,109.6h-0.1c-0.1-0.1-0.1-0.3-0.1-0.4l0.7-1.1
	c0.1-0.1,0.3-0.1,0.4-0.1c0.1,0.1,0.1,0.3,0.1,0.4l-0.7,1.1C22.2,109.5,22.1,109.6,21.9,109.6z"/>
<path style="fill:#FFFFFF;stroke:#000000;stroke-miterlimit:10;" d="M40.9,108.2C40.9,108.2,40.8,108.2,40.9,108.2
	c-0.3-0.1-0.4-0.3-0.3-0.4l0.4-1.2c0-0.1,0.3-0.3,0.4-0.3s0.3,0.3,0.3,0.4l-0.4,1.2C41.2,108,41,108.2,40.9,108.2z"/>
<path style="fill:#FFFFFF;stroke:#000000;stroke-miterlimit:10;" d="M23.3,107.4h-0.1c-0.1-0.1-0.1-0.3-0.1-0.4l0.7-1.1
	c0.1-0.1,0.3-0.1,0.4-0.1c0.1,0.1,0.1,0.3,0.1,0.4l-0.7,1.1C23.5,107.4,23.4,107.4,23.3,107.4z"/>
<path style="fill:#FFFFFF;stroke:#000000;stroke-miterlimit:10;" d="M41.7,105.8C41.6,105.8,41.6,105.8,41.7,105.8
	c-0.3-0.1-0.4-0.3-0.3-0.4l0.4-1.2c0-0.1,0.3-0.3,0.4-0.3s0.3,0.3,0.3,0.4l-0.4,1.2C42,105.6,41.8,105.8,41.7,105.8z"/>
<path style="fill:#FFFFFF;stroke:#000000;stroke-miterlimit:10;" d="M24.6,105.2h-0.1c-0.1-0.1-0.1-0.3-0.1-0.4l0.7-1.1
	c0.1-0.1,0.3-0.1,0.4-0.1c0.1,0.1,0.1,0.3,0.1,0.4l-0.7,1.1C24.7,105.2,24.7,105.2,24.6,105.2z"/>
<path style="fill:#FFFFFF;stroke:#000000;stroke-miterlimit:10;" d="M42.2,103.3c-0.1,0-0.3,0-0.3-0.1c0-0.1-0.3-0.3-0.7-0.3H41
	c-0.1,0-0.3-0.1-0.3-0.3c0-0.1,0.1-0.3,0.3-0.3h0.3c0.5,0,0.9,0.1,1.2,0.5C42.6,103.1,42.5,103.3,42.2,103.3
	C42.4,103.3,42.4,103.3,42.2,103.3z"/>
<path style="fill:#FFFFFF;stroke:#000000;stroke-miterlimit:10;" d="M26.1,103.2c-0.1,0-0.3,0-0.3-0.1c-0.1-0.1,0-0.4,0.1-0.4
	c0.4-0.1,0.8-0.3,1.2-0.3h0.1c0.1,0,0.3,0.1,0.3,0.3c0,0.1-0.1,0.3-0.3,0.3h-0.1c-0.3,0-0.7,0.1-0.9,0.3
	C26.2,103.2,26.1,103.2,26.1,103.2z"/>
<path style="fill:#FFFFFF;stroke:#000000;stroke-miterlimit:10;" d="M39.8,102.9L39.8,102.9h-1.3c-0.1,0-0.3-0.1-0.3-0.3
	c0-0.1,0.1-0.3,0.3-0.3l0,0h1.3c0.1,0,0.3,0.1,0.3,0.3C40.2,102.8,40,102.9,39.8,102.9z"/>
<path style="fill:#FFFFFF;stroke:#000000;stroke-miterlimit:10;" d="M37.3,102.9L37.3,102.9H36c-0.1,0-0.3-0.1-0.3-0.3
	c0-0.1,0.1-0.3,0.3-0.3l0,0h1.3c0.1,0,0.3,0.1,0.3,0.3C37.7,102.8,37.5,102.9,37.3,102.9z"/>
<path style="fill:#FFFFFF;stroke:#000000;stroke-miterlimit:10;" d="M34.8,102.9L34.8,102.9h-1.3c-0.1,0-0.3-0.1-0.3-0.3
	c0-0.1,0.1-0.3,0.3-0.3l0,0h1.2c0.1,0,0.3,0.1,0.3,0.3C35.1,102.8,34.9,102.9,34.8,102.9z"/>
<path style="fill:#FFFFFF;stroke:#000000;stroke-miterlimit:10;" d="M32.3,102.9L32.3,102.9H31c-0.1,0-0.3-0.1-0.3-0.3
	c0-0.1,0.1-0.3,0.3-0.3l0,0h1.3c0.1,0,0.3,0.1,0.3,0.3C32.6,102.8,32.4,102.9,32.3,102.9z"/>
<path style="fill:#FFFFFF;stroke:#000000;stroke-miterlimit:10;" d="M29.8,102.9L29.8,102.9h-1.3c-0.1,0-0.3-0.1-0.3-0.3
	c0-0.1,0.1-0.3,0.3-0.3l0,0h1.3c0.1,0,0.3,0.1,0.3,0.3C30,102.8,29.9,102.9,29.8,102.9z"/>
<path style="fill:#FFFFFF;stroke:#000000;stroke-miterlimit:10;" d="M30.2,113.3c-1.5-0.5-2-1.5-1.5-2.5c0.5-0.9,1.9-1.7,3.2-2.1
	c0.3-0.1,0.3-0.3,0-0.3c-2.9,0-6.4,1.2-7.8,3.1c-1.3,1.5-0.5,3.1,1.9,3.8c3.1,0.8,7.3,0.1,9.6-1.5c0.1-0.1,0-0.3-0.3-0.3
	C33.6,113.7,31.8,113.8,30.2,113.3z"/>
</svg>
